<mxfile host="4d704c50-eb2b-4b75-9d26-40fae5f0176d" modified="2020-09-21T01:04:26.973Z" agent="5.0 (Macintosh; Intel Mac OS X 10_15_6) AppleWebKit/537.36 (KHTML, like Gecko) Code/1.49.1 Chrome/83.0.4103.122 Electron/9.2.1 Safari/537.36" etag="yn_MJ5w8fHyosFjpdZ0r" version="13.1.3">
    <diagram id="6hGFLwfOUW9BJ-s0fimq" name="Page-1">
        <mxGraphModel dx="1911" dy="717" grid="1" gridSize="10" guides="1" tooltips="1" connect="1" arrows="1" fold="1" page="1" pageScale="1" pageWidth="827" pageHeight="1169" math="0" shadow="0">
            <root>
                <mxCell id="0"/>
                <mxCell id="1" parent="0"/>
                <mxCell id="2" value="" style="html=1;verticalLabelPosition=bottom;labelBackgroundColor=#ffffff;verticalAlign=top;shadow=0;dashed=0;strokeWidth=1;shape=mxgraph.ios7.misc.iphone;strokeColor=#c0c0c0;" parent="1" vertex="1">
                    <mxGeometry x="90" y="60" width="320" height="640" as="geometry"/>
                </mxCell>
                <mxCell id="10" value="" style="shape=rect;strokeColor=none;fillColor=#ffffff;gradientColor=none;shadow=0;" parent="1" vertex="1">
                    <mxGeometry x="104" y="150" width="290" height="467.5" as="geometry"/>
                </mxCell>
                <mxCell id="64" value="" style="rounded=0;whiteSpace=wrap;html=1;fillColor=#DEDEDE;" parent="10" vertex="1">
                    <mxGeometry y="430" width="290" height="35" as="geometry"/>
                </mxCell>
                <mxCell id="66" value="" style="html=1;verticalLabelPosition=bottom;align=center;labelBackgroundColor=#ffffff;verticalAlign=top;strokeWidth=2;strokeColor=#0080F0;shadow=0;dashed=0;shape=mxgraph.ios7.icons.user;fillColor=#DEDEDE;" parent="10" vertex="1">
                    <mxGeometry x="249.1035483870968" y="434.42" width="27.935741935483875" height="25.84" as="geometry"/>
                </mxCell>
                <mxCell id="68" value="" style="html=1;verticalLabelPosition=bottom;align=center;labelBackgroundColor=#ffffff;verticalAlign=top;strokeWidth=2;strokeColor=#0080F0;shadow=0;dashed=0;shape=mxgraph.ios7.icons.chat;fillColor=#DEDEDE;" parent="10" vertex="1">
                    <mxGeometry x="73.46064516129032" y="437.5" width="26.542645161290327" height="20" as="geometry"/>
                </mxCell>
                <mxCell id="71" value="&lt;font style=&quot;font-size: 12px&quot;&gt;Mis Contactos&lt;/font&gt;" style="text;strokeColor=none;fillColor=#808080;html=1;fontSize=24;fontStyle=1;verticalAlign=middle;align=left;" parent="10" vertex="1">
                    <mxGeometry x="18.45" y="140" width="251.55" height="30.56" as="geometry"/>
                </mxCell>
                <mxCell id="76" value="" style="rounded=0;whiteSpace=wrap;html=1;strokeColor=#808080;fillColor=#66B2FF;" parent="10" vertex="1">
                    <mxGeometry x="66" y="70" width="81.55000000000001" height="30" as="geometry"/>
                </mxCell>
                <mxCell id="77" value="&lt;span style=&quot;font-size: 14px&quot;&gt;PaÃ­s&lt;/span&gt;" style="text;strokeColor=none;fillColor=none;html=1;fontSize=24;fontStyle=1;verticalAlign=middle;align=center;" parent="10" vertex="1">
                    <mxGeometry x="79.09903225806453" y="60" width="55.35483870967743" height="40" as="geometry"/>
                </mxCell>
                <mxCell id="78" value="" style="rounded=0;whiteSpace=wrap;html=1;strokeColor=#808080;fillColor=#66B2FF;" parent="10" vertex="1">
                    <mxGeometry x="156.88000000000002" y="70" width="90.67000000000002" height="30" as="geometry"/>
                </mxCell>
                <mxCell id="80" value="&lt;span style=&quot;font-size: 14px&quot;&gt;Ciudad&lt;/span&gt;" style="text;strokeColor=none;fillColor=none;html=1;fontSize=24;fontStyle=1;verticalAlign=middle;align=center;" parent="10" vertex="1">
                    <mxGeometry x="176.87322580645164" y="60" width="55.35483870967743" height="40" as="geometry"/>
                </mxCell>
                <mxCell id="81" value="" style="rounded=0;whiteSpace=wrap;html=1;strokeColor=#808080;fillColor=#808080;" parent="10" vertex="1">
                    <mxGeometry x="250.5177419354839" y="70" width="83.03225806451614" height="30" as="geometry"/>
                </mxCell>
                <mxCell id="83" value="&lt;span style=&quot;font-size: 14px&quot;&gt;Emp&lt;/span&gt;" style="text;strokeColor=none;fillColor=none;html=1;fontSize=24;fontStyle=1;verticalAlign=middle;align=center;" parent="10" vertex="1">
                    <mxGeometry x="277.55000000000007" y="60" width="51.35000000000001" height="40" as="geometry"/>
                </mxCell>
                <mxCell id="84" value="" style="html=1;verticalLabelPosition=bottom;align=center;labelBackgroundColor=#ffffff;verticalAlign=top;strokeWidth=2;strokeColor=#0080F0;shadow=0;dashed=0;shape=mxgraph.ios7.icons.location;fillColor=#66B2FF;" parent="10" vertex="1">
                    <mxGeometry x="160.46" y="73.75" width="16.41" height="21.25" as="geometry"/>
                </mxCell>
                <mxCell id="85" value="" style="html=1;verticalLabelPosition=bottom;align=center;labelBackgroundColor=#ffffff;verticalAlign=top;strokeWidth=2;strokeColor=#0080F0;shadow=0;dashed=0;shape=mxgraph.ios7.icons.location_2;fillColor=#66B2FF;" parent="10" vertex="1">
                    <mxGeometry x="71.1" y="77.5" width="15.000000000000002" height="15" as="geometry"/>
                </mxCell>
                <mxCell id="86" value="" style="html=1;verticalLabelPosition=bottom;align=center;labelBackgroundColor=#ffffff;verticalAlign=top;strokeWidth=2;strokeColor=#0080F0;shadow=0;dashed=0;shape=mxgraph.ios7.icons.shopping_cart;fillColor=#66B2FF;" parent="10" vertex="1">
                    <mxGeometry x="259.74" y="73.75" width="20.000000000000004" height="20" as="geometry"/>
                </mxCell>
                <mxCell id="103" value="Peru" style="rounded=1;whiteSpace=wrap;html=1;arcSize=50;strokeColor=none;strokeWidth=1;fillColor=#0085FC;fontColor=#FFFFFF;whiteSpace=wrap;align=left;verticalAlign=middle;spacingLeft=0;fontStyle=1;fontSize=14;spacing=10;" parent="10" vertex="1">
                    <mxGeometry x="18.44999999999999" y="110" width="70" height="20" as="geometry"/>
                </mxCell>
                <mxCell id="106" value="" style="html=1;verticalLabelPosition=bottom;labelBackgroundColor=#ffffff;verticalAlign=top;shadow=0;dashed=0;strokeWidth=2;shape=mxgraph.ios7.misc.delete;fillColor=#ff0000;strokeColor=#ffffff;" parent="10" vertex="1">
                    <mxGeometry x="73.45999999999998" y="114" width="12" height="12" as="geometry"/>
                </mxCell>
                <mxCell id="107" value="AQP" style="rounded=1;whiteSpace=wrap;html=1;arcSize=50;strokeColor=none;strokeWidth=1;fillColor=#0085FC;fontColor=#FFFFFF;whiteSpace=wrap;align=left;verticalAlign=middle;spacingLeft=0;fontStyle=1;fontSize=14;spacing=10;" parent="10" vertex="1">
                    <mxGeometry x="91.02999999999997" y="110" width="70" height="20" as="geometry"/>
                </mxCell>
                <mxCell id="108" value="" style="html=1;verticalLabelPosition=bottom;labelBackgroundColor=#ffffff;verticalAlign=top;shadow=0;dashed=0;strokeWidth=2;shape=mxgraph.ios7.misc.delete;fillColor=#ff0000;strokeColor=#ffffff;" parent="10" vertex="1">
                    <mxGeometry x="146.03999999999996" y="114" width="12" height="12" as="geometry"/>
                </mxCell>
                <mxCell id="109" value="Tecsup" style="rounded=1;whiteSpace=wrap;html=1;arcSize=50;strokeColor=none;strokeWidth=1;fillColor=#0085FC;fontColor=#FFFFFF;whiteSpace=wrap;align=left;verticalAlign=middle;spacingLeft=0;fontStyle=1;fontSize=14;spacing=10;" parent="10" vertex="1">
                    <mxGeometry x="164.04" y="110" width="85.96" height="20" as="geometry"/>
                </mxCell>
                <mxCell id="110" value="" style="html=1;verticalLabelPosition=bottom;labelBackgroundColor=#ffffff;verticalAlign=top;shadow=0;dashed=0;strokeWidth=2;shape=mxgraph.ios7.misc.delete;fillColor=#ff0000;strokeColor=#ffffff;" parent="10" vertex="1">
                    <mxGeometry x="232.18999999999994" y="114" width="12" height="12" as="geometry"/>
                </mxCell>
                <mxCell id="116" value="" style="triangle;whiteSpace=wrap;html=1;strokeColor=#808080;fillColor=#FF6666;rotation=90;" parent="10" vertex="1">
                    <mxGeometry x="134.45" y="80.62" width="4.77" height="8.75" as="geometry"/>
                </mxCell>
                <mxCell id="117" value="" style="triangle;whiteSpace=wrap;html=1;strokeColor=#808080;fillColor=#FF6666;rotation=90;" parent="10" vertex="1">
                    <mxGeometry x="233.44" y="80.63" width="4.77" height="8.75" as="geometry"/>
                </mxCell>
                <mxCell id="118" value="" style="triangle;whiteSpace=wrap;html=1;strokeColor=#808080;fillColor=#FF6666;rotation=90;" parent="10" vertex="1">
                    <mxGeometry x="324.13" y="80.63" width="4.77" height="8.75" as="geometry"/>
                </mxCell>
                <mxCell id="277" value="Nombre&#10;Empresa - Cargo" style="dashed=0;shape=rect;fillColor=#ffffff;strokeColor=none;verticalLabelPosition=middle;align=left;verticalAlign=middle;fontSize=15;spacingLeft=72;" parent="10" vertex="1">
                    <mxGeometry x="17.140000000000057" y="390" width="255.71" height="40" as="geometry"/>
                </mxCell>
                <mxCell id="278" value="" style="dashed=0;shape=mxgraph.gmdl.user;strokeColor=none;fillColor=#808080;" parent="277" vertex="1">
                    <mxGeometry y="0.5" width="40" height="40" relative="1" as="geometry">
                        <mxPoint x="16" y="-20" as="offset"/>
                    </mxGeometry>
                </mxCell>
                <mxCell id="279" value="" style="dashed=0;shape=mxgraph.gmdl.preferences;strokeColor=none;fillColor=#666666;" parent="277" vertex="1">
                    <mxGeometry x="1" y="0.5" width="18" height="18" relative="1" as="geometry">
                        <mxPoint x="-36" y="-9" as="offset"/>
                    </mxGeometry>
                </mxCell>
                <mxCell id="323" value="" style="html=1;verticalLabelPosition=bottom;align=center;labelBackgroundColor=#ffffff;verticalAlign=top;strokeWidth=2;strokeColor=#007FFF;shadow=0;dashed=0;shape=mxgraph.ios7.icons.calculator;fillColor=#B3B3B3;" parent="10" vertex="1">
                    <mxGeometry x="193.24" y="437.76" width="17.95" height="22.5" as="geometry"/>
                </mxCell>
                <mxCell id="430" value="" style="aspect=fixed;pointerEvents=1;shadow=0;dashed=0;html=1;strokeColor=none;labelPosition=center;verticalLabelPosition=bottom;verticalAlign=top;align=center;fillColor=#B3B3B3;shape=mxgraph.mscae.enterprise.filter" parent="10" vertex="1">
                    <mxGeometry x="26" y="75" width="22.22" height="20" as="geometry"/>
                </mxCell>
                <mxCell id="480" value="" style="html=1;verticalLabelPosition=bottom;align=center;labelBackgroundColor=#ffffff;verticalAlign=top;strokeWidth=2;strokeColor=#FF6666;shadow=0;dashed=0;shape=mxgraph.ios7.icons.home;fillColor=#E6E6E6;" parent="10" vertex="1">
                    <mxGeometry x="18.45" y="436.09" width="24" height="22.5" as="geometry"/>
                </mxCell>
                <mxCell id="54" value="" style="shape=rect;fillColor=#DEDEDE;strokeColor=none;" parent="1" vertex="1">
                    <mxGeometry x="170" y="170" width="160" height="30" as="geometry"/>
                </mxCell>
                <mxCell id="55" value="" style="html=1;strokeWidth=1;shadow=0;dashed=0;shape=mxgraph.ios7ui.marginRect;rx=3;ry=3;rectMargin=5;strokeColor=none;" parent="54" vertex="1">
                    <mxGeometry width="160" height="30" as="geometry"/>
                </mxCell>
                <mxCell id="56" value="Search" style="shape=mxgraph.ios7.icons.looking_glass;strokeColor=#e0e0e0;fillColor=none;fontColor=#e0e0e0;labelPosition=right;verticalLabelPosition=middle;align=left;verticalAlign=middle;fontSize=6;fontStyle=0;spacingTop=2;" parent="54" vertex="1">
                    <mxGeometry x="0.5" y="0.5" width="6" height="6" relative="1" as="geometry">
                        <mxPoint x="-17" y="-3" as="offset"/>
                    </mxGeometry>
                </mxCell>
                <mxCell id="60" value="" style="html=1;verticalLabelPosition=bottom;align=center;labelBackgroundColor=#ffffff;verticalAlign=top;strokeWidth=2;strokeColor=#0080F0;shadow=0;dashed=0;shape=mxgraph.ios7.icons.user;fillColor=#DEDEDE;" parent="1" vertex="1">
                    <mxGeometry x="340" y="170" width="30" height="30" as="geometry"/>
                </mxCell>
                <mxCell id="61" value="" style="html=1;verticalLabelPosition=bottom;align=center;labelBackgroundColor=#ffffff;verticalAlign=top;strokeWidth=2;strokeColor=#0080F0;shadow=0;dashed=0;shape=mxgraph.ios7.icons.options;pointerEvents=1;fillColor=#DEDEDE;" parent="1" vertex="1">
                    <mxGeometry x="130" y="173.75" width="30" height="22.5" as="geometry"/>
                </mxCell>
                <mxCell id="87" value="" style="rounded=0;whiteSpace=wrap;html=1;strokeColor=#808080;fillColor=#808080;" parent="1" vertex="1">
                    <mxGeometry x="457.55" y="220" width="100" height="30" as="geometry"/>
                </mxCell>
                <mxCell id="88" value="&lt;span style=&quot;font-size: 14px&quot;&gt;Estudios&lt;/span&gt;" style="text;strokeColor=none;fillColor=none;html=1;fontSize=24;fontStyle=1;verticalAlign=middle;align=center;" parent="1" vertex="1">
                    <mxGeometry x="480.5764516129032" y="210" width="55.35483870967742" height="40" as="geometry"/>
                </mxCell>
                <mxCell id="91" value="" style="html=1;verticalLabelPosition=bottom;align=center;labelBackgroundColor=#ffffff;verticalAlign=top;strokeWidth=2;strokeColor=#0080F0;shadow=0;dashed=0;shape=mxgraph.ios7.icons.pen;fillColor=#66B2FF;" parent="1" vertex="1">
                    <mxGeometry x="461.55" y="230" width="9.9" height="10" as="geometry"/>
                </mxCell>
                <mxCell id="92" value="" style="ellipse;whiteSpace=wrap;html=1;strokeColor=#808080;fillColor=#E6E6E6;" parent="1" vertex="1">
                    <mxGeometry x="567.55" y="245" width="5" height="5" as="geometry"/>
                </mxCell>
                <mxCell id="93" value="" style="ellipse;whiteSpace=wrap;html=1;strokeColor=#808080;fillColor=#E6E6E6;" parent="1" vertex="1">
                    <mxGeometry x="577.55" y="245" width="5" height="5" as="geometry"/>
                </mxCell>
                <mxCell id="96" value="" style="ellipse;whiteSpace=wrap;html=1;strokeColor=#808080;fillColor=#E6E6E6;" parent="1" vertex="1">
                    <mxGeometry x="587.55" y="245" width="5" height="5" as="geometry"/>
                </mxCell>
                <mxCell id="114" value="DiseÃ±o" style="rounded=1;whiteSpace=wrap;html=1;arcSize=50;strokeColor=none;strokeWidth=1;fillColor=#0085FC;fontColor=#FFFFFF;whiteSpace=wrap;align=left;verticalAlign=middle;spacingLeft=0;fontStyle=1;fontSize=14;spacing=10;" parent="1" vertex="1">
                    <mxGeometry x="359.99999999999994" y="260" width="85.96" height="20" as="geometry"/>
                </mxCell>
                <mxCell id="115" value="" style="html=1;verticalLabelPosition=bottom;labelBackgroundColor=#ffffff;verticalAlign=top;shadow=0;dashed=0;strokeWidth=2;shape=mxgraph.ios7.misc.delete;fillColor=#ff0000;strokeColor=#ffffff;" parent="1" vertex="1">
                    <mxGeometry x="428.1499999999999" y="264" width="12" height="12" as="geometry"/>
                </mxCell>
                <mxCell id="119" value="" style="triangle;whiteSpace=wrap;html=1;strokeColor=#808080;fillColor=#FF6666;rotation=90;" parent="1" vertex="1">
                    <mxGeometry x="547.55" y="231.25" width="4.77" height="8.75" as="geometry"/>
                </mxCell>
                <mxCell id="265" value="Nombre&#10;Empresa - Cargo" style="dashed=0;shape=rect;fillColor=#ffffff;strokeColor=none;verticalLabelPosition=middle;align=left;verticalAlign=middle;fontSize=15;spacingLeft=72;" parent="1" vertex="1">
                    <mxGeometry x="118.29" y="330" width="255.71" height="40" as="geometry"/>
                </mxCell>
                <mxCell id="266" value="" style="dashed=0;shape=mxgraph.gmdl.user;strokeColor=none;fillColor=#808080;" parent="265" vertex="1">
                    <mxGeometry y="0.5" width="40" height="40" relative="1" as="geometry">
                        <mxPoint x="16" y="-20" as="offset"/>
                    </mxGeometry>
                </mxCell>
                <mxCell id="267" value="" style="dashed=0;shape=mxgraph.gmdl.preferences;strokeColor=none;fillColor=#666666;" parent="265" vertex="1">
                    <mxGeometry x="1" y="0.5" width="18" height="18" relative="1" as="geometry">
                        <mxPoint x="-36" y="-9" as="offset"/>
                    </mxGeometry>
                </mxCell>
                <mxCell id="268" value="Nombre&#10;Empresa - Cargo" style="dashed=0;shape=rect;fillColor=#ffffff;strokeColor=none;verticalLabelPosition=middle;align=left;verticalAlign=middle;fontSize=15;spacingLeft=72;" parent="1" vertex="1">
                    <mxGeometry x="121.14000000000003" y="380" width="255.71" height="40" as="geometry"/>
                </mxCell>
                <mxCell id="269" value="" style="dashed=0;shape=mxgraph.gmdl.user;strokeColor=none;fillColor=#808080;" parent="268" vertex="1">
                    <mxGeometry y="0.5" width="40" height="40" relative="1" as="geometry">
                        <mxPoint x="16" y="-20" as="offset"/>
                    </mxGeometry>
                </mxCell>
                <mxCell id="270" value="" style="dashed=0;shape=mxgraph.gmdl.preferences;strokeColor=none;fillColor=#666666;" parent="268" vertex="1">
                    <mxGeometry x="1" y="0.5" width="18" height="18" relative="1" as="geometry">
                        <mxPoint x="-36" y="-9" as="offset"/>
                    </mxGeometry>
                </mxCell>
                <mxCell id="271" value="Nombre&#10;Empresa - Cargo" style="dashed=0;shape=rect;fillColor=#ffffff;strokeColor=none;verticalLabelPosition=middle;align=left;verticalAlign=middle;fontSize=15;spacingLeft=72;" parent="1" vertex="1">
                    <mxGeometry x="122.14000000000004" y="440" width="255.71" height="40" as="geometry"/>
                </mxCell>
                <mxCell id="272" value="" style="dashed=0;shape=mxgraph.gmdl.user;strokeColor=none;fillColor=#808080;" parent="271" vertex="1">
                    <mxGeometry y="0.5" width="40" height="40" relative="1" as="geometry">
                        <mxPoint x="16" y="-20" as="offset"/>
                    </mxGeometry>
                </mxCell>
                <mxCell id="273" value="" style="dashed=0;shape=mxgraph.gmdl.preferences;strokeColor=none;fillColor=#666666;" parent="271" vertex="1">
                    <mxGeometry x="1" y="0.5" width="18" height="18" relative="1" as="geometry">
                        <mxPoint x="-36" y="-9" as="offset"/>
                    </mxGeometry>
                </mxCell>
                <mxCell id="274" value="Nombre&#10;Empresa - Cargo" style="dashed=0;shape=rect;fillColor=#ffffff;strokeColor=none;verticalLabelPosition=middle;align=left;verticalAlign=middle;fontSize=15;spacingLeft=72;" parent="1" vertex="1">
                    <mxGeometry x="122.14000000000004" y="490" width="255.71" height="40" as="geometry"/>
                </mxCell>
                <mxCell id="275" value="" style="dashed=0;shape=mxgraph.gmdl.user;strokeColor=none;fillColor=#808080;" parent="274" vertex="1">
                    <mxGeometry y="0.5" width="40" height="40" relative="1" as="geometry">
                        <mxPoint x="16" y="-20" as="offset"/>
                    </mxGeometry>
                </mxCell>
                <mxCell id="276" value="" style="dashed=0;shape=mxgraph.gmdl.preferences;strokeColor=none;fillColor=#666666;" parent="274" vertex="1">
                    <mxGeometry x="1" y="0.5" width="18" height="18" relative="1" as="geometry">
                        <mxPoint x="-36" y="-9" as="offset"/>
                    </mxGeometry>
                </mxCell>
                <mxCell id="321" value="" style="html=1;verticalLabelPosition=bottom;labelBackgroundColor=#ffffff;verticalAlign=top;shadow=0;dashed=0;strokeWidth=2;shape=mxgraph.ios7.misc.add;fillColor=#6666FF;strokeColor=#ffffff;" parent="1" vertex="1">
                    <mxGeometry x="232.96541935483873" y="568" width="32.06890322580646" height="32.08" as="geometry"/>
                </mxCell>
                <mxCell id="324" value="" style="html=1;verticalLabelPosition=bottom;labelBackgroundColor=#ffffff;verticalAlign=top;shadow=0;dashed=0;strokeWidth=1;shape=mxgraph.ios7.misc.iphone;strokeColor=#c0c0c0;" parent="1" vertex="1">
                    <mxGeometry x="1400" y="59.38" width="320" height="640" as="geometry"/>
                </mxCell>
                <mxCell id="325" value="" style="shape=rect;strokeColor=none;fillColor=#ffffff;gradientColor=none;shadow=0;" parent="1" vertex="1">
                    <mxGeometry x="1414" y="139.38" width="290" height="467.5" as="geometry"/>
                </mxCell>
                <mxCell id="326" value="" style="rounded=0;whiteSpace=wrap;html=1;fillColor=#DEDEDE;" parent="325" vertex="1">
                    <mxGeometry y="430" width="290" height="35" as="geometry"/>
                </mxCell>
                <mxCell id="327" value="" style="html=1;verticalLabelPosition=bottom;align=center;labelBackgroundColor=#ffffff;verticalAlign=top;strokeWidth=2;strokeColor=#0080F0;shadow=0;dashed=0;shape=mxgraph.ios7.icons.user;fillColor=#DEDEDE;" parent="325" vertex="1">
                    <mxGeometry x="249.1035483870968" y="434.42" width="27.935741935483875" height="25.84" as="geometry"/>
                </mxCell>
                <mxCell id="329" value="" style="html=1;verticalLabelPosition=bottom;align=center;labelBackgroundColor=#ffffff;verticalAlign=top;strokeWidth=2;strokeColor=#0080F0;shadow=0;dashed=0;shape=mxgraph.ios7.icons.chat;fillColor=#DEDEDE;" parent="325" vertex="1">
                    <mxGeometry x="73.46064516129032" y="437.5" width="26.542645161290327" height="20" as="geometry"/>
                </mxCell>
                <mxCell id="352" value="" style="html=1;verticalLabelPosition=bottom;align=center;labelBackgroundColor=#ffffff;verticalAlign=top;strokeWidth=2;strokeColor=#FF6666;shadow=0;dashed=0;shape=mxgraph.ios7.icons.calculator;fillColor=#B3B3B3;" parent="325" vertex="1">
                    <mxGeometry x="196" y="437.76" width="17.95" height="22.5" as="geometry"/>
                </mxCell>
                <mxCell id="385" value="" style="html=1;verticalLabelPosition=bottom;align=center;labelBackgroundColor=#ffffff;verticalAlign=top;strokeWidth=2;strokeColor=#0080F0;shadow=0;dashed=0;shape=mxgraph.ios7.icons.user;fillColor=#DEDEDE;" parent="325" vertex="1">
                    <mxGeometry x="236" y="30" width="30" height="30" as="geometry"/>
                </mxCell>
                <mxCell id="431" value="" style="html=1;verticalLabelPosition=bottom;align=center;labelBackgroundColor=#ffffff;verticalAlign=top;strokeWidth=2;strokeColor=#007FFF;shadow=0;dashed=0;shape=mxgraph.ios7.icons.calculator;fillColor=#B3B3B3;" parent="325" vertex="1">
                    <mxGeometry x="48" y="200" width="194" height="180" as="geometry"/>
                </mxCell>
                <mxCell id="433" value="&lt;span style=&quot;font-size: 18px&quot;&gt;EscanÃ©ame&lt;/span&gt;" style="html=1;shadow=0;dashed=0;shape=mxgraph.bootstrap.rrect;rSize=5;strokeColor=none;strokeWidth=1;fillColor=#F8F9FA;fontColor=#000000;whiteSpace=wrap;align=left;verticalAlign=middle;spacingLeft=0;fontStyle=1;fontSize=14;spacing=5;" parent="325" vertex="1">
                    <mxGeometry x="87.5" y="160" width="115" height="30" as="geometry"/>
                </mxCell>
                <mxCell id="434" value="" style="dashed=0;aspect=fixed;verticalLabelPosition=bottom;verticalAlign=top;align=center;shape=mxgraph.gmdl.share2;strokeColor=none;fillColor=#737373;shadow=0;" parent="325" vertex="1">
                    <mxGeometry x="206" y="110" width="30" height="30" as="geometry"/>
                </mxCell>
                <mxCell id="436" value="" style="dashed=0;outlineConnect=0;html=1;align=center;labelPosition=center;verticalLabelPosition=bottom;verticalAlign=top;shape=mxgraph.webicons.facebook;fillColor=#6294E4;gradientColor=#1A2665;strokeColor=#000000;" parent="325" vertex="1">
                    <mxGeometry x="155.89" y="110" width="30" height="30" as="geometry"/>
                </mxCell>
                <mxCell id="437" value="" style="dashed=0;outlineConnect=0;html=1;align=center;labelPosition=center;verticalLabelPosition=bottom;verticalAlign=top;shape=mxgraph.weblogos.instagram;fillColor=#6FC0E4;gradientColor=#1E305B;strokeColor=#000000;" parent="325" vertex="1">
                    <mxGeometry x="100" y="110" width="30" height="30" as="geometry"/>
                </mxCell>
                <mxCell id="439" value="&lt;span style=&quot;font-size: 18px&quot;&gt;Compartir&lt;/span&gt;" style="html=1;shadow=0;dashed=0;shape=mxgraph.bootstrap.rrect;rSize=5;strokeColor=none;strokeWidth=1;fillColor=#F8F9FA;fontColor=#000000;whiteSpace=wrap;align=center;verticalAlign=middle;spacingLeft=0;fontStyle=1;fontSize=14;spacing=5;" parent="325" vertex="1">
                    <mxGeometry x="87.5" y="60" width="115" height="30" as="geometry"/>
                </mxCell>
                <mxCell id="441" value="" style="html=1;dashed=0;whitespace=wrap;fillColor=#2875E2;strokeColor=#ffffff;points=[[0.005,0.63,0],[0.1,0.2,0],[0.9,0.2,0],[0.5,0,0],[0.995,0.63,0],[0.72,0.99,0],[0.5,1,0],[0.28,0.99,0]];shape=mxgraph.kubernetes.icon;prIcon=user" parent="325" vertex="1">
                    <mxGeometry x="110.11" y="263" width="69.79" height="67" as="geometry"/>
                </mxCell>
                <mxCell id="443" value="" style="dashed=0;outlineConnect=0;html=1;align=center;labelPosition=center;verticalLabelPosition=bottom;verticalAlign=top;shape=mxgraph.webicons.twitter;fillColor=#49EAF7;gradientColor=#137BD0;strokeColor=#000000;" parent="325" vertex="1">
                    <mxGeometry x="43.46" y="110" width="30" height="30" as="geometry"/>
                </mxCell>
                <mxCell id="481" value="&lt;span style=&quot;color: rgba(0 , 0 , 0 , 0) ; font-family: monospace ; font-size: 0px ; background-color: rgb(42 , 42 , 42)&quot;&gt;%3CmxGraphModel%3E%3Croot%3E%3CmxCell%20id%3D%220%22%2F%3E%3CmxCell%20id%3D%221%22%20parent%3D%220%22%2F%3E%3CmxCell%20id%3D%222%22%20value%3D%22%22%20style%3D%22html%3D1%3BverticalLabelPosition%3Dbottom%3Balign%3Dcenter%3BlabelBackgroundColor%3D%23ffffff%3BverticalAlign%3Dtop%3BstrokeWidth%3D2%3BstrokeColor%3D%230080F0%3Bshadow%3D0%3Bdashed%3D0%3Bshape%3Dmxgraph.ios7.icons.home%3BfillColor%3D%23B3B3B3%3B%22%20vertex%3D%221%22%20parent%3D%221%22%3E%3CmxGeometry%20x%3D%22122.45%22%20y%3D%22586.0899999999999%22%20width%3D%2224%22%20height%3D%2222.5%22%20as%3D%22geometry%22%2F%3E%3C%2FmxCell%3E%3C%2Froot%3E%3C%2FmxGraphModel%3E&lt;/span&gt;" style="html=1;verticalLabelPosition=bottom;align=center;labelBackgroundColor=#ffffff;verticalAlign=top;strokeWidth=2;strokeColor=#0080F0;shadow=0;dashed=0;shape=mxgraph.ios7.icons.home;fillColor=#E6E6E6;" parent="325" vertex="1">
                    <mxGeometry x="16" y="436.0899999999999" width="24" height="22.5" as="geometry"/>
                </mxCell>
                <mxCell id="357" value="" style="html=1;verticalLabelPosition=bottom;align=center;labelBackgroundColor=#ffffff;verticalAlign=top;strokeWidth=2;strokeColor=#0080F0;shadow=0;dashed=0;shape=mxgraph.ios7.icons.options;pointerEvents=1;fillColor=#DEDEDE;" parent="1" vertex="1">
                    <mxGeometry x="1440" y="173.13" width="30" height="22.5" as="geometry"/>
                </mxCell>
                <mxCell id="379" value="" style="html=1;verticalLabelPosition=bottom;labelBackgroundColor=#ffffff;verticalAlign=top;shadow=0;dashed=0;strokeWidth=2;shape=mxgraph.ios7.misc.add;fillColor=#6666FF;strokeColor=#ffffff;" parent="1" vertex="1">
                    <mxGeometry x="1542.9654193548388" y="567.38" width="32.06890322580646" height="32.08" as="geometry"/>
                </mxCell>
                <mxCell id="386" value="" style="html=1;verticalLabelPosition=bottom;labelBackgroundColor=#ffffff;verticalAlign=top;shadow=0;dashed=0;strokeWidth=1;shape=mxgraph.ios7.misc.iphone;strokeColor=#c0c0c0;" parent="1" vertex="1">
                    <mxGeometry x="-415" y="63.75" width="320" height="640" as="geometry"/>
                </mxCell>
                <mxCell id="387" value="" style="shape=rect;strokeColor=none;fillColor=#ffffff;gradientColor=none;shadow=0;" parent="1" vertex="1">
                    <mxGeometry x="-400" y="150" width="290" height="467.5" as="geometry"/>
                </mxCell>
                <mxCell id="398" value="" style="html=1;verticalLabelPosition=bottom;labelBackgroundColor=#ffffff;verticalAlign=top;shadow=0;dashed=0;strokeWidth=1;shape=mxgraph.ios7ui.pageControl;fillColor=#222222;strokeColor=#aaaaaa;" parent="1" vertex="1">
                    <mxGeometry x="-280.78999999999996" y="573.75" width="50" height="5" as="geometry"/>
                </mxCell>
                <mxCell id="399" value="" style="ellipse;whiteSpace=wrap;html=1;aspect=fixed;strokeColor=#3399FF;fillColor=#3399FF;" parent="1" vertex="1">
                    <mxGeometry x="-376.71000000000004" y="323.75" width="110" height="110" as="geometry"/>
                </mxCell>
                <mxCell id="407" value="" style="ellipse;whiteSpace=wrap;html=1;aspect=fixed;strokeColor=#E6E6E6;fillColor=#B3B3B3;" parent="1" vertex="1">
                    <mxGeometry x="-245" y="323.75" width="110" height="110" as="geometry"/>
                </mxCell>
                <mxCell id="408" value="" style="ellipse;whiteSpace=wrap;html=1;aspect=fixed;strokeColor=#E6E6E6;fillColor=#B3B3B3;" parent="1" vertex="1">
                    <mxGeometry x="-117.14999999999998" y="323.75" width="110" height="110" as="geometry"/>
                </mxCell>
                <mxCell id="409" value="" style="ellipse;whiteSpace=wrap;html=1;aspect=fixed;strokeColor=#E6E6E6;fillColor=#B3B3B3;" parent="1" vertex="1">
                    <mxGeometry x="-510" y="328.75" width="110" height="110" as="geometry"/>
                </mxCell>
                <mxCell id="412" value="Vista previa" style="html=1;shadow=0;dashed=0;shape=mxgraph.bootstrap.rrect;rSize=5;strokeColor=none;strokeWidth=1;fillColor=#343A40;fontColor=#FFFFFF;whiteSpace=wrap;align=center;verticalAlign=middle;spacingLeft=0;fontStyle=1;fontSize=14;spacing=5;" parent="1" vertex="1">
                    <mxGeometry x="-370.03" y="513.75" width="96.64" height="20" as="geometry"/>
                </mxCell>
                <mxCell id="413" value="Vista previa" style="html=1;shadow=0;dashed=0;shape=mxgraph.bootstrap.rrect;rSize=5;strokeColor=none;strokeWidth=1;fillColor=#343A40;fontColor=#FFFFFF;whiteSpace=wrap;align=center;verticalAlign=middle;spacingLeft=0;fontStyle=1;fontSize=14;spacing=5;" parent="1" vertex="1">
                    <mxGeometry x="-236.68" y="513.75" width="93.35" height="20" as="geometry"/>
                </mxCell>
                <mxCell id="414" value="Vista previa" style="html=1;shadow=0;dashed=0;shape=mxgraph.bootstrap.rrect;rSize=5;strokeColor=none;strokeWidth=1;fillColor=#343A40;fontColor=#FFFFFF;whiteSpace=wrap;align=center;verticalAlign=middle;spacingLeft=0;fontStyle=1;fontSize=14;spacing=5;" parent="1" vertex="1">
                    <mxGeometry x="-109.42999999999995" y="513.75" width="97.15" height="20" as="geometry"/>
                </mxCell>
                <mxCell id="415" value="Vista previa" style="html=1;shadow=0;dashed=0;shape=mxgraph.bootstrap.rrect;rSize=5;strokeColor=none;strokeWidth=1;fillColor=#343A40;fontColor=#FFFFFF;whiteSpace=wrap;align=center;verticalAlign=middle;spacingLeft=0;fontStyle=1;fontSize=14;spacing=5;" parent="1" vertex="1">
                    <mxGeometry x="-505" y="513.75" width="100" height="20" as="geometry"/>
                </mxCell>
                <mxCell id="416" value="Selecciona un tema para tu tarjeta" style="html=1;shadow=0;dashed=0;shape=mxgraph.bootstrap.rrect;rSize=5;strokeColor=none;strokeWidth=1;fillColor=#6C767D;fontColor=#FFFFFF;whiteSpace=wrap;align=left;verticalAlign=middle;spacingLeft=10;fontStyle=1;fontSize=18;" parent="1" vertex="1">
                    <mxGeometry x="-362.5" y="223.75" width="215" height="50" as="geometry"/>
                </mxCell>
                <mxCell id="417" value="" style="verticalLabelPosition=bottom;verticalAlign=top;html=1;shadow=0;dashed=0;strokeWidth=1;shape=mxgraph.ios.iCloudProgressBar;barPos=82.22;fillColor=#007FFF;" parent="1" vertex="1">
                    <mxGeometry x="-376.71" y="173.75" width="231.71" height="10" as="geometry"/>
                </mxCell>
                <mxCell id="432" value="" style="edgeStyle=orthogonalEdgeStyle;rounded=0;orthogonalLoop=1;jettySize=auto;html=1;" parent="1" source="419" target="399" edge="1">
                    <mxGeometry relative="1" as="geometry"/>
                </mxCell>
                <mxCell id="419" value="Seleccionar" style="rounded=1;whiteSpace=wrap;html=1;arcSize=50;strokeColor=none;strokeWidth=1;fillColor=#0085FC;fontColor=#FFFFFF;whiteSpace=wrap;align=left;verticalAlign=middle;spacingLeft=0;fontStyle=1;fontSize=14;spacing=10;" parent="1" vertex="1">
                    <mxGeometry x="-370.03" y="483.75" width="98.29" height="20" as="geometry"/>
                </mxCell>
                <mxCell id="420" value="Seleccionar" style="rounded=1;whiteSpace=wrap;html=1;arcSize=50;strokeColor=none;strokeWidth=1;fillColor=#0085FC;fontColor=#FFFFFF;whiteSpace=wrap;align=left;verticalAlign=middle;spacingLeft=0;fontStyle=1;fontSize=14;spacing=10;" parent="1" vertex="1">
                    <mxGeometry x="-503.28999999999996" y="483.75" width="98.29" height="20" as="geometry"/>
                </mxCell>
                <mxCell id="421" value="Seleccionar" style="rounded=1;whiteSpace=wrap;html=1;arcSize=50;strokeColor=none;strokeWidth=1;fillColor=#0085FC;fontColor=#FFFFFF;whiteSpace=wrap;align=left;verticalAlign=middle;spacingLeft=0;fontStyle=1;fontSize=14;spacing=10;" parent="1" vertex="1">
                    <mxGeometry x="-239.14" y="483.75" width="98.29" height="20" as="geometry"/>
                </mxCell>
                <mxCell id="423" value="Seleccionar" style="rounded=1;whiteSpace=wrap;html=1;arcSize=50;strokeColor=none;strokeWidth=1;fillColor=#0085FC;fontColor=#FFFFFF;whiteSpace=wrap;align=left;verticalAlign=middle;spacingLeft=0;fontStyle=1;fontSize=14;spacing=10;" parent="1" vertex="1">
                    <mxGeometry x="-109.43" y="483.75" width="98.29" height="20" as="geometry"/>
                </mxCell>
                <mxCell id="426" value="&lt;font style=&quot;font-size: 12px&quot;&gt;Nombre tema 1&lt;/font&gt;" style="html=1;shadow=0;dashed=0;shape=mxgraph.bootstrap.rrect;rSize=5;strokeColor=none;strokeWidth=1;fillColor=#F8F9FA;fontColor=#000000;whiteSpace=wrap;align=left;verticalAlign=middle;spacingLeft=0;fontStyle=1;fontSize=14;spacing=5;" parent="1" vertex="1">
                    <mxGeometry x="-503.29" y="452.75" width="100" height="20" as="geometry"/>
                </mxCell>
                <mxCell id="427" value="&lt;font style=&quot;font-size: 12px&quot;&gt;Nombre tema 2&lt;/font&gt;" style="html=1;shadow=0;dashed=0;shape=mxgraph.bootstrap.rrect;rSize=5;strokeColor=none;strokeWidth=1;fillColor=#F8F9FA;fontColor=#000000;whiteSpace=wrap;align=left;verticalAlign=middle;spacingLeft=0;fontStyle=1;fontSize=14;spacing=5;" parent="1" vertex="1">
                    <mxGeometry x="-371.74" y="452.75" width="100" height="20" as="geometry"/>
                </mxCell>
                <mxCell id="428" value="&lt;font style=&quot;font-size: 12px&quot;&gt;Nombre tema 3&lt;/font&gt;" style="html=1;shadow=0;dashed=0;shape=mxgraph.bootstrap.rrect;rSize=5;strokeColor=none;strokeWidth=1;fillColor=#F8F9FA;fontColor=#000000;whiteSpace=wrap;align=left;verticalAlign=middle;spacingLeft=0;fontStyle=1;fontSize=14;spacing=5;" parent="1" vertex="1">
                    <mxGeometry x="-240" y="452.75" width="100" height="20" as="geometry"/>
                </mxCell>
                <mxCell id="429" value="&lt;font style=&quot;font-size: 12px&quot;&gt;Nombre tema 1&lt;/font&gt;" style="html=1;shadow=0;dashed=0;shape=mxgraph.bootstrap.rrect;rSize=5;strokeColor=none;strokeWidth=1;fillColor=#F8F9FA;fontColor=#000000;whiteSpace=wrap;align=left;verticalAlign=middle;spacingLeft=0;fontStyle=1;fontSize=14;spacing=5;" parent="1" vertex="1">
                    <mxGeometry x="-106.62" y="452.75" width="100" height="20" as="geometry"/>
                </mxCell>
                <mxCell id="461" value="" style="html=1;verticalLabelPosition=bottom;labelBackgroundColor=#ffffff;verticalAlign=top;shadow=0;dashed=0;strokeWidth=1;shape=mxgraph.ios7.misc.iphone;strokeColor=#c0c0c0;" parent="1" vertex="1">
                    <mxGeometry x="1890" y="58.13" width="320" height="640" as="geometry"/>
                </mxCell>
                <mxCell id="462" value="" style="shape=rect;strokeColor=none;fillColor=#ffffff;gradientColor=none;shadow=0;" parent="1" vertex="1">
                    <mxGeometry x="1904" y="138.13" width="286" height="467.5" as="geometry"/>
                </mxCell>
                <mxCell id="463" value="" style="rounded=0;whiteSpace=wrap;html=1;fillColor=#DEDEDE;" parent="462" vertex="1">
                    <mxGeometry y="430" width="271.0457516339869" height="35" as="geometry"/>
                </mxCell>
                <mxCell id="464" value="" style="html=1;verticalLabelPosition=bottom;align=center;labelBackgroundColor=#ffffff;verticalAlign=top;strokeWidth=2;strokeColor=#FF6666;shadow=0;dashed=0;shape=mxgraph.ios7.icons.user;fillColor=#DEDEDE;" parent="462" vertex="1">
                    <mxGeometry x="232.82227071473753" y="434.42" width="26.109876449504537" height="25.84" as="geometry"/>
                </mxCell>
                <mxCell id="466" value="" style="html=1;verticalLabelPosition=bottom;align=center;labelBackgroundColor=#ffffff;verticalAlign=top;strokeWidth=2;strokeColor=#0080F0;shadow=0;dashed=0;shape=mxgraph.ios7.icons.chat;fillColor=#DEDEDE;" parent="462" vertex="1">
                    <mxGeometry x="68.65929580434323" y="437.5" width="24.807831752055666" height="20" as="geometry"/>
                </mxCell>
                <mxCell id="467" value="" style="html=1;verticalLabelPosition=bottom;align=center;labelBackgroundColor=#ffffff;verticalAlign=top;strokeWidth=2;strokeColor=#007FFF;shadow=0;dashed=0;shape=mxgraph.ios7.icons.calculator;fillColor=#B3B3B3;" parent="462" vertex="1">
                    <mxGeometry x="186.34862745098042" y="437.5" width="16.776797385620913" height="22.5" as="geometry"/>
                </mxCell>
                <mxCell id="468" value="" style="html=1;verticalLabelPosition=bottom;align=center;labelBackgroundColor=#ffffff;verticalAlign=top;strokeWidth=2;strokeColor=#0080F0;shadow=0;dashed=0;shape=mxgraph.ios7.icons.user;fillColor=#DEDEDE;" parent="462" vertex="1">
                    <mxGeometry x="220.5751633986928" y="30" width="28.03921568627451" height="30" as="geometry"/>
                </mxCell>
                <mxCell id="479" value="" style="html=1;verticalLabelPosition=bottom;align=center;labelBackgroundColor=#ffffff;verticalAlign=top;strokeWidth=2;strokeColor=#0080F0;shadow=0;dashed=0;shape=mxgraph.ios7.icons.user;fillColor=#DEDEDE;" parent="462" vertex="1">
                    <mxGeometry x="26.669999999999998" y="71.25" width="89.76" height="88.75" as="geometry"/>
                </mxCell>
                <mxCell id="482" value="&lt;span style=&quot;color: rgba(0 , 0 , 0 , 0) ; font-family: monospace ; font-size: 0px ; background-color: rgb(42 , 42 , 42)&quot;&gt;%3CmxGraphModel%3E%3Croot%3E%3CmxCell%20id%3D%220%22%2F%3E%3CmxCell%20id%3D%221%22%20parent%3D%220%22%2F%3E%3CmxCell%20id%3D%222%22%20value%3D%22%22%20style%3D%22html%3D1%3BverticalLabelPosition%3Dbottom%3Balign%3Dcenter%3BlabelBackgroundColor%3D%23ffffff%3BverticalAlign%3Dtop%3BstrokeWidth%3D2%3BstrokeColor%3D%230080F0%3Bshadow%3D0%3Bdashed%3D0%3Bshape%3Dmxgraph.ios7.icons.home%3BfillColor%3D%23B3B3B3%3B%22%20vertex%3D%221%22%20parent%3D%221%22%3E%3CmxGeometry%20x%3D%22122.45%22%20y%3D%22586.0899999999999%22%20width%3D%2224%22%20height%3D%2222.5%22%20as%3D%22geometry%22%2F%3E%3C%2FmxCell%3E%3C%2Froot%3E%3C%2FmxGraphModel%3E&lt;/span&gt;" style="html=1;verticalLabelPosition=bottom;align=center;labelBackgroundColor=#ffffff;verticalAlign=top;strokeWidth=2;strokeColor=#0080F0;shadow=0;dashed=0;shape=mxgraph.ios7.icons.home;fillColor=#E6E6E6;" parent="462" vertex="1">
                    <mxGeometry x="24.30065359477124" y="436.08999999999986" width="22.431372549019606" height="22.5" as="geometry"/>
                </mxCell>
                <mxCell id="483" value="&lt;font style=&quot;font-size: 12px&quot;&gt;Nombre Completo&lt;/font&gt;" style="html=1;shadow=0;dashed=0;shape=mxgraph.bootstrap.rrect;rSize=5;strokeColor=none;strokeWidth=1;fillColor=#F8F9FA;fontColor=#000000;whiteSpace=wrap;align=left;verticalAlign=middle;spacingLeft=0;fontStyle=0;fontSize=16;spacing=5;" parent="462" vertex="1">
                    <mxGeometry x="140.2334640522876" y="103.75" width="109.0164705882353" height="18.75" as="geometry"/>
                </mxCell>
                <mxCell id="484" value="&lt;span style=&quot;font-size: 12px&quot;&gt;email&lt;/span&gt;" style="html=1;shadow=0;dashed=0;shape=mxgraph.bootstrap.rrect;rSize=5;strokeColor=none;strokeWidth=1;fillColor=#F8F9FA;fontColor=#000000;whiteSpace=wrap;align=left;verticalAlign=middle;spacingLeft=0;fontStyle=0;fontSize=16;spacing=5;" parent="462" vertex="1">
                    <mxGeometry x="140.2334640522876" y="122.5" width="71.63084967320262" height="18.75" as="geometry"/>
                </mxCell>
                <mxCell id="485" value="&lt;span style=&quot;font-size: 12px&quot;&gt;telÃ©fono&lt;/span&gt;" style="html=1;shadow=0;dashed=0;shape=mxgraph.bootstrap.rrect;rSize=5;strokeColor=none;strokeWidth=1;fillColor=#F8F9FA;fontColor=#000000;whiteSpace=wrap;align=left;verticalAlign=middle;spacingLeft=0;fontStyle=0;fontSize=16;spacing=5;" parent="462" vertex="1">
                    <mxGeometry x="140.2334640522876" y="142.5" width="67.05111111111111" height="18.75" as="geometry"/>
                </mxCell>
                <mxCell id="486" value="&lt;span style=&quot;font-size: 12px&quot;&gt;Empresa&lt;/span&gt;" style="html=1;shadow=0;dashed=0;shape=mxgraph.bootstrap.rrect;rSize=5;strokeColor=none;strokeWidth=1;fillColor=#F8F9FA;fontColor=#000000;whiteSpace=wrap;align=left;verticalAlign=middle;spacingLeft=0;fontStyle=0;fontSize=16;spacing=5;" parent="462" vertex="1">
                    <mxGeometry x="24.30065359477124" y="260" width="102.81045751633987" height="28.75" as="geometry"/>
                </mxCell>
                <mxCell id="487" value="&lt;span style=&quot;font-size: 12px&quot;&gt;Cargo&lt;/span&gt;" style="html=1;shadow=0;dashed=0;shape=mxgraph.bootstrap.rrect;rSize=5;strokeColor=none;strokeWidth=1;fillColor=#F8F9FA;fontColor=#000000;whiteSpace=wrap;align=left;verticalAlign=middle;spacingLeft=0;fontStyle=0;fontSize=16;spacing=5;" parent="462" vertex="1">
                    <mxGeometry x="24.30065359477124" y="290.62" width="96.12777777777778" height="26.88" as="geometry"/>
                </mxCell>
                <mxCell id="488" value="&lt;span style=&quot;font-size: 12px&quot;&gt;Habilidades&lt;/span&gt;" style="html=1;shadow=0;dashed=0;shape=mxgraph.bootstrap.rrect;rSize=5;strokeColor=none;strokeWidth=1;fillColor=#F8F9FA;fontColor=#000000;whiteSpace=wrap;align=left;verticalAlign=middle;spacingLeft=0;fontStyle=0;fontSize=16;spacing=5;" parent="462" vertex="1">
                    <mxGeometry x="24.30065359477124" y="361.87" width="102.81045751633987" height="28.75" as="geometry"/>
                </mxCell>
                <mxCell id="489" value="&lt;span style=&quot;font-size: 12px&quot;&gt;DirecciÃ³n&lt;/span&gt;" style="html=1;shadow=0;dashed=0;shape=mxgraph.bootstrap.rrect;rSize=5;strokeColor=none;strokeWidth=1;fillColor=#F8F9FA;fontColor=#000000;whiteSpace=wrap;align=left;verticalAlign=middle;spacingLeft=0;fontStyle=0;fontSize=16;spacing=5;" parent="462" vertex="1">
                    <mxGeometry x="139.50333333333347" y="162.5" width="67.05111111111111" height="18.75" as="geometry"/>
                </mxCell>
                <mxCell id="490" value="&lt;span style=&quot;font-size: 12px&quot;&gt;Mi Perfil&lt;/span&gt;" style="html=1;shadow=0;dashed=0;shape=mxgraph.bootstrap.rrect;rSize=5;strokeColor=none;strokeWidth=1;fillColor=#F8F9FA;fontColor=#000000;whiteSpace=wrap;align=left;verticalAlign=middle;spacingLeft=0;fontStyle=0;fontSize=16;spacing=5;" parent="462" vertex="1">
                    <mxGeometry x="116.43" y="35.63" width="63.57" height="18.75" as="geometry"/>
                </mxCell>
                <mxCell id="491" value="&lt;span style=&quot;font-size: 12px&quot;&gt;Experiencia Profesional&lt;/span&gt;" style="html=1;shadow=0;dashed=0;shape=mxgraph.bootstrap.rrect;rSize=5;strokeColor=none;strokeWidth=1;fillColor=#F8F9FA;fontColor=#000000;whiteSpace=wrap;align=left;verticalAlign=middle;spacingLeft=0;fontStyle=0;fontSize=16;spacing=5;" parent="462" vertex="1">
                    <mxGeometry x="24.30065359477124" y="323.12" width="162.62745098039215" height="28.75" as="geometry"/>
                </mxCell>
                <mxCell id="492" value="&lt;span style=&quot;font-size: 12px&quot;&gt;Sitio Web&lt;/span&gt;" style="html=1;shadow=0;dashed=0;shape=mxgraph.bootstrap.rrect;rSize=5;strokeColor=none;strokeWidth=1;fillColor=#F8F9FA;fontColor=#000000;whiteSpace=wrap;align=left;verticalAlign=middle;spacingLeft=0;fontStyle=0;fontSize=16;spacing=5;" parent="462" vertex="1">
                    <mxGeometry x="26.41294117647079" y="241.25" width="67.05111111111111" height="18.75" as="geometry"/>
                </mxCell>
                <mxCell id="494" value="" style="dashed=0;outlineConnect=0;html=1;align=center;labelPosition=center;verticalLabelPosition=bottom;verticalAlign=top;shape=mxgraph.webicons.facebook;fillColor=#6294E4;gradientColor=#1A2665;strokeColor=#000000;" parent="462" vertex="1">
                    <mxGeometry x="65.42483660130719" y="401.25" width="18.69281045751634" height="18.75" as="geometry"/>
                </mxCell>
                <mxCell id="495" value="" style="dashed=0;outlineConnect=0;html=1;align=center;labelPosition=center;verticalLabelPosition=bottom;verticalAlign=top;shape=mxgraph.weblogos.instagram;fillColor=#6FC0E4;gradientColor=#1E305B;strokeColor=#000000;" parent="462" vertex="1">
                    <mxGeometry x="24.30065359477124" y="401.25" width="22.431372549019606" height="18.75" as="geometry"/>
                </mxCell>
                <mxCell id="496" value="" style="dashed=0;outlineConnect=0;html=1;align=center;labelPosition=center;verticalLabelPosition=bottom;verticalAlign=top;shape=mxgraph.webicons.twitter;fillColor=#49EAF7;gradientColor=#137BD0;strokeColor=#000000;" parent="462" vertex="1">
                    <mxGeometry x="103.84790849673203" y="401.25" width="17.655359477124183" height="18.75" as="geometry"/>
                </mxCell>
                <mxCell id="497" value="" style="dashed=0;outlineConnect=0;html=1;align=center;labelPosition=center;verticalLabelPosition=bottom;verticalAlign=top;shape=mxgraph.weblogos.github;strokeColor=#FF6666;fillColor=#E6E6E6;" parent="462" vertex="1">
                    <mxGeometry x="142.52333333333334" y="401.25" width="17.524509803921568" height="18.75" as="geometry"/>
                </mxCell>
                <mxCell id="498" value="&lt;span style=&quot;font-size: 12px&quot;&gt;PresentaciÃ³n&lt;/span&gt;" style="html=1;shadow=0;dashed=0;shape=mxgraph.bootstrap.rrect;rSize=5;strokeColor=none;strokeWidth=1;fillColor=#F8F9FA;fontColor=#000000;whiteSpace=wrap;align=left;verticalAlign=middle;spacingLeft=0;fontStyle=0;fontSize=16;spacing=5;" parent="462" vertex="1">
                    <mxGeometry x="26.41294117647059" y="211.25" width="85.74392156862744" height="18.75" as="geometry"/>
                </mxCell>
                <mxCell id="499" value="" style="html=1;strokeColor=none;fillColor=#0079D6;labelPosition=center;verticalLabelPosition=middle;verticalAlign=top;align=center;fontSize=12;outlineConnect=0;spacingTop=-6;fontColor=#FFFFFF;shape=mxgraph.sitemap.portfolio;" parent="462" vertex="1">
                    <mxGeometry x="181.82496732026144" y="401.25" width="30.03934640522876" height="18.75" as="geometry"/>
                </mxCell>
                <mxCell id="506" value="" style="ellipse;whiteSpace=wrap;html=1;aspect=fixed;strokeColor=#007FFF;fillColor=#E6E6E6;" parent="462" vertex="1">
                    <mxGeometry x="130.65" y="370.31" width="11.87" height="11.87" as="geometry"/>
                </mxCell>
                <mxCell id="507" value="" style="ellipse;whiteSpace=wrap;html=1;aspect=fixed;strokeColor=#007FFF;fillColor=#E6E6E6;" parent="462" vertex="1">
                    <mxGeometry x="125.19000000000005" y="298.11999999999995" width="11.87" height="11.87" as="geometry"/>
                </mxCell>
                <mxCell id="508" value="Portafolio" style="strokeWidth=1;html=1;shadow=0;dashed=0;shape=mxgraph.ios.iCopy;fillColor=#000000;buttonText=;fontColor=#ffffff;spacingBottom=6;fontSize=9;fillColor2=#000000;fillColor3=#ffffff;align=center;" parent="462" vertex="1">
                    <mxGeometry x="169.16" y="373.75" width="55.37" height="27.5" as="geometry"/>
                </mxCell>
                <mxCell id="509" value="Privado" style="strokeWidth=1;html=1;shadow=0;dashed=0;shape=mxgraph.ios.iCopy;fillColor=#000000;buttonText=;fontColor=#ffffff;spacingBottom=6;fontSize=9;fillColor2=#000000;fillColor3=#ffffff;align=center;" parent="462" vertex="1">
                    <mxGeometry x="113.19" y="342.81" width="45.75" height="27.5" as="geometry"/>
                </mxCell>
                <mxCell id="510" value="PÃºblico" style="strokeWidth=1;html=1;shadow=0;dashed=0;shape=mxgraph.ios.iCopy;fillColor=#000000;buttonText=;fontColor=#ffffff;spacingBottom=6;fontSize=9;fillColor2=#000000;fillColor3=#ffffff;align=center;" parent="462" vertex="1">
                    <mxGeometry x="174.83000000000015" y="301.25" width="45.75" height="27.5" as="geometry"/>
                </mxCell>
                <mxCell id="511" value="" style="ellipse;whiteSpace=wrap;html=1;aspect=fixed;strokeColor=#007FFF;fillColor=#E6E6E6;" parent="462" vertex="1">
                    <mxGeometry x="190.91000000000008" y="331.55999999999995" width="11.87" height="11.87" as="geometry"/>
                </mxCell>
                <mxCell id="515" value="" style="html=1;verticalLabelPosition=bottom;align=center;labelBackgroundColor=#ffffff;verticalAlign=top;strokeWidth=2;strokeColor=#0080F0;shadow=0;dashed=0;shape=mxgraph.ios7.icons.locked;fillColor=#3399FF;" parent="462" vertex="1">
                    <mxGeometry x="128.2" y="300.61" width="5.84" height="6.88" as="geometry"/>
                </mxCell>
                <mxCell id="518" value="" style="html=1;verticalLabelPosition=bottom;align=center;labelBackgroundColor=#ffffff;verticalAlign=top;strokeWidth=2;strokeColor=#0080F0;shadow=0;dashed=0;shape=mxgraph.ios7.icons.locked;fillColor=#3399FF;" parent="462" vertex="1">
                    <mxGeometry x="193.92000000000007" y="334.06" width="5.84" height="6.88" as="geometry"/>
                </mxCell>
                <mxCell id="519" value="" style="html=1;verticalLabelPosition=bottom;align=center;labelBackgroundColor=#ffffff;verticalAlign=top;strokeWidth=2;strokeColor=#0080F0;shadow=0;dashed=0;shape=mxgraph.ios7.icons.locked;fillColor=#3399FF;" parent="462" vertex="1">
                    <mxGeometry x="133.66000000000008" y="372.8" width="5.84" height="6.88" as="geometry"/>
                </mxCell>
                <mxCell id="523" value="" style="html=1;verticalLabelPosition=bottom;labelBackgroundColor=#ffffff;verticalAlign=top;shadow=0;dashed=0;strokeWidth=2;shape=mxgraph.ios7.misc.select;fillColor=#0080f0;strokeColor=#ffffff;" parent="462" vertex="1">
                    <mxGeometry x="130.6500000000001" y="268.37" width="12" height="12" as="geometry"/>
                </mxCell>
                <mxCell id="524" value="" style="html=1;verticalLabelPosition=bottom;labelBackgroundColor=#ffffff;verticalAlign=top;shadow=0;dashed=0;strokeWidth=2;shape=mxgraph.ios7.misc.select;fillColor=#0080f0;strokeColor=#ffffff;" parent="462" vertex="1">
                    <mxGeometry x="93.47000000000003" y="244.62" width="12" height="12" as="geometry"/>
                </mxCell>
                <mxCell id="525" value="" style="html=1;verticalLabelPosition=bottom;labelBackgroundColor=#ffffff;verticalAlign=top;shadow=0;dashed=0;strokeWidth=2;shape=mxgraph.ios7.misc.select;fillColor=#0080f0;strokeColor=#ffffff;" parent="462" vertex="1">
                    <mxGeometry x="113.19000000000005" y="214.62" width="12" height="12" as="geometry"/>
                </mxCell>
                <mxCell id="574" value="&lt;font style=&quot;font-size: 10px&quot;&gt;Vista previa tarjeta&lt;/font&gt;" style="rounded=1;whiteSpace=wrap;html=1;arcSize=50;strokeColor=none;strokeWidth=1;fillColor=#0085FC;fontColor=#FFFFFF;whiteSpace=wrap;align=center;verticalAlign=middle;spacingLeft=0;fontStyle=1;fontSize=14;spacing=10;" parent="462" vertex="1">
                    <mxGeometry x="14.72" y="171.25" width="115.29" height="20" as="geometry"/>
                </mxCell>
                <mxCell id="575" value="&lt;span style=&quot;font-size: 12px&quot;&gt;Tema: Nombre del tema&lt;/span&gt;" style="html=1;shadow=0;dashed=0;shape=mxgraph.bootstrap.rrect;rSize=5;strokeColor=none;strokeWidth=1;fillColor=#F8F9FA;fontColor=#000000;whiteSpace=wrap;align=left;verticalAlign=middle;spacingLeft=0;fontStyle=0;fontSize=16;spacing=5;" parent="462" vertex="1">
                    <mxGeometry x="139.5" y="182.5" width="140.5" height="18.75" as="geometry"/>
                </mxCell>
                <mxCell id="656" value="" style="html=1;verticalLabelPosition=bottom;align=center;labelBackgroundColor=#ffffff;verticalAlign=top;strokeWidth=2;strokeColor=#0080F0;shadow=0;dashed=0;shape=mxgraph.ios7.icons.pen;fillColor=#66B2FF;" parent="462" vertex="1">
                    <mxGeometry x="249.2500000000001" y="81.25" width="9.9" height="10" as="geometry"/>
                </mxCell>
                <mxCell id="657" value="&lt;font style=&quot;font-size: 11px&quot;&gt;Editar perfil&lt;/font&gt;" style="html=1;shadow=0;dashed=0;shape=mxgraph.bootstrap.rrect;rSize=5;strokeColor=none;strokeWidth=1;fillColor=none;fontColor=#0085FC;whiteSpace=wrap;align=center;verticalAlign=middle;spacingLeft=0;fontStyle=0;fontSize=16;spacing=5;" parent="462" vertex="1">
                    <mxGeometry x="128.19999999999985" y="66.25" width="173.65" height="40" as="geometry"/>
                </mxCell>
                <mxCell id="477" value="" style="html=1;verticalLabelPosition=bottom;align=center;labelBackgroundColor=#ffffff;verticalAlign=top;strokeWidth=2;strokeColor=#0080F0;shadow=0;dashed=0;shape=mxgraph.ios7.icons.options;pointerEvents=1;fillColor=#DEDEDE;" parent="1" vertex="1">
                    <mxGeometry x="1930" y="171.88" width="30" height="22.5" as="geometry"/>
                </mxCell>
                <mxCell id="478" value="" style="html=1;verticalLabelPosition=bottom;labelBackgroundColor=#ffffff;verticalAlign=top;shadow=0;dashed=0;strokeWidth=2;shape=mxgraph.ios7.misc.add;fillColor=#6666FF;strokeColor=#ffffff;" parent="1" vertex="1">
                    <mxGeometry x="2032.9654193548388" y="566.13" width="32.06890322580646" height="32.08" as="geometry"/>
                </mxCell>
                <mxCell id="528" value="" style="html=1;verticalLabelPosition=bottom;labelBackgroundColor=#ffffff;verticalAlign=top;shadow=0;dashed=0;strokeWidth=1;shape=mxgraph.ios7.misc.iphone;strokeColor=#c0c0c0;" parent="1" vertex="1">
                    <mxGeometry x="2310" y="58.13" width="320" height="640" as="geometry"/>
                </mxCell>
                <mxCell id="529" value="" style="shape=rect;strokeColor=none;fillColor=#ffffff;gradientColor=none;shadow=0;" parent="1" vertex="1">
                    <mxGeometry x="2324" y="138.13" width="286" height="467.5" as="geometry"/>
                </mxCell>
                <mxCell id="535" value="" style="html=1;verticalLabelPosition=bottom;align=center;labelBackgroundColor=#ffffff;verticalAlign=top;strokeWidth=2;strokeColor=#0080F0;shadow=0;dashed=0;shape=mxgraph.ios7.icons.user;fillColor=#DEDEDE;" parent="529" vertex="1">
                    <mxGeometry x="107.28" y="70" width="70.8" height="70" as="geometry"/>
                </mxCell>
                <mxCell id="537" value="&lt;font style=&quot;font-size: 12px&quot;&gt;Nombre Completo&lt;/font&gt;" style="html=1;shadow=0;dashed=0;shape=mxgraph.bootstrap.rrect;rSize=5;strokeColor=none;strokeWidth=1;fillColor=#F8F9FA;fontColor=#000000;whiteSpace=wrap;align=left;verticalAlign=middle;spacingLeft=0;fontStyle=0;fontSize=16;spacing=5;" parent="529" vertex="1">
                    <mxGeometry x="90.00346405228758" y="151.25" width="109.0164705882353" height="18.75" as="geometry"/>
                </mxCell>
                <mxCell id="538" value="&lt;span style=&quot;font-size: 12px&quot;&gt;email&lt;/span&gt;" style="html=1;shadow=0;dashed=0;shape=mxgraph.bootstrap.rrect;rSize=5;strokeColor=none;strokeWidth=1;fillColor=#F8F9FA;fontColor=#000000;whiteSpace=wrap;align=left;verticalAlign=middle;spacingLeft=0;fontStyle=0;fontSize=16;spacing=5;" parent="529" vertex="1">
                    <mxGeometry x="24.30346405228758" y="271.25" width="71.63084967320262" height="18.75" as="geometry"/>
                </mxCell>
                <mxCell id="539" value="&lt;span style=&quot;font-size: 12px&quot;&gt;telÃ©fono&lt;/span&gt;" style="html=1;shadow=0;dashed=0;shape=mxgraph.bootstrap.rrect;rSize=5;strokeColor=none;strokeWidth=1;fillColor=#F8F9FA;fontColor=#000000;whiteSpace=wrap;align=left;verticalAlign=middle;spacingLeft=0;fontStyle=0;fontSize=16;spacing=5;" parent="529" vertex="1">
                    <mxGeometry x="24.30346405228758" y="301.25" width="67.05111111111111" height="18.75" as="geometry"/>
                </mxCell>
                <mxCell id="543" value="&lt;span style=&quot;font-size: 12px&quot;&gt;DirecciÃ³n&lt;/span&gt;" style="html=1;shadow=0;dashed=0;shape=mxgraph.bootstrap.rrect;rSize=5;strokeColor=none;strokeWidth=1;fillColor=#F8F9FA;fontColor=#000000;whiteSpace=wrap;align=left;verticalAlign=middle;spacingLeft=0;fontStyle=0;fontSize=16;spacing=5;" parent="529" vertex="1">
                    <mxGeometry x="26.593333333333476" y="331.25" width="67.05111111111111" height="18.75" as="geometry"/>
                </mxCell>
                <mxCell id="547" value="" style="dashed=0;outlineConnect=0;html=1;align=center;labelPosition=center;verticalLabelPosition=bottom;verticalAlign=top;shape=mxgraph.webicons.facebook;fillColor=#6294E4;gradientColor=#1A2665;strokeColor=#000000;" parent="529" vertex="1">
                    <mxGeometry x="116.42483660130719" y="212.5" width="18.69281045751634" height="18.75" as="geometry"/>
                </mxCell>
                <mxCell id="548" value="" style="dashed=0;outlineConnect=0;html=1;align=center;labelPosition=center;verticalLabelPosition=bottom;verticalAlign=top;shape=mxgraph.weblogos.instagram;fillColor=#6FC0E4;gradientColor=#1E305B;strokeColor=#000000;" parent="529" vertex="1">
                    <mxGeometry x="75.3" y="212.5" width="24.87" height="18.75" as="geometry"/>
                </mxCell>
                <mxCell id="549" value="" style="dashed=0;outlineConnect=0;html=1;align=center;labelPosition=center;verticalLabelPosition=bottom;verticalAlign=top;shape=mxgraph.webicons.twitter;fillColor=#49EAF7;gradientColor=#137BD0;strokeColor=#000000;" parent="529" vertex="1">
                    <mxGeometry x="154.84790849673203" y="212.5" width="17.655359477124183" height="18.75" as="geometry"/>
                </mxCell>
                <mxCell id="550" value="" style="dashed=0;outlineConnect=0;html=1;align=center;labelPosition=center;verticalLabelPosition=bottom;verticalAlign=top;shape=mxgraph.weblogos.github;strokeColor=#FF6666;fillColor=#E6E6E6;" parent="529" vertex="1">
                    <mxGeometry x="193.5233333333333" y="212.5" width="17.524509803921568" height="18.75" as="geometry"/>
                </mxCell>
                <mxCell id="567" value="&lt;span style=&quot;font-size: 12px&quot;&gt;Sitio Web&lt;/span&gt;" style="html=1;shadow=0;dashed=0;shape=mxgraph.bootstrap.rrect;rSize=5;strokeColor=none;strokeWidth=1;fillColor=#F8F9FA;fontColor=#000000;whiteSpace=wrap;align=left;verticalAlign=middle;spacingLeft=0;fontStyle=0;fontSize=16;spacing=5;" parent="529" vertex="1">
                    <mxGeometry x="26.412941176470895" y="361.25" width="67.05111111111111" height="18.75" as="geometry"/>
                </mxCell>
                <mxCell id="569" value="&lt;font style=&quot;font-size: 12px&quot;&gt;PresentaciÃ³n&lt;/font&gt;" style="html=1;shadow=0;dashed=0;shape=mxgraph.bootstrap.rrect;rSize=5;strokeColor=none;strokeWidth=1;fillColor=#F8F9FA;fontColor=#000000;whiteSpace=wrap;align=left;verticalAlign=middle;spacingLeft=0;fontStyle=0;fontSize=16;spacing=5;" parent="529" vertex="1">
                    <mxGeometry x="101.96000000000001" y="252.5" width="82.08" height="18.75" as="geometry"/>
                </mxCell>
                <mxCell id="570" value="Ver perfil completo" style="html=1;shadow=0;dashed=0;shape=mxgraph.bootstrap.rrect;rSize=5;strokeColor=none;strokeWidth=1;fillColor=#0085FC;fontColor=#FFFFFF;whiteSpace=wrap;align=left;verticalAlign=middle;spacingLeft=0;fontStyle=1;fontSize=14;spacing=5;" parent="529" vertex="1">
                    <mxGeometry x="73.57" y="426.25" width="140" height="20" as="geometry"/>
                </mxCell>
                <mxCell id="571" value="" style="html=1;verticalLabelPosition=bottom;align=center;labelBackgroundColor=#ffffff;verticalAlign=top;strokeWidth=2;strokeColor=#0080F0;shadow=0;dashed=0;shape=mxgraph.ios7.icons.back;fillColor=#999999;" parent="529" vertex="1">
                    <mxGeometry x="24.299999999999955" y="21.25" width="30" height="25.5" as="geometry"/>
                </mxCell>
                <mxCell id="573" value="Regresar a mi cuenta" style="html=1;shadow=0;dashed=0;shape=mxgraph.bootstrap.rrect;rSize=5;strokeColor=none;strokeWidth=1;fillColor=none;fontColor=#0085FC;whiteSpace=wrap;align=center;verticalAlign=middle;spacingLeft=0;fontStyle=0;fontSize=16;spacing=5;" parent="529" vertex="1">
                    <mxGeometry x="56.35" y="14" width="173.65" height="40" as="geometry"/>
                </mxCell>
                <mxCell id="653" value="" style="dashed=0;outlineConnect=0;html=1;align=center;labelPosition=center;verticalLabelPosition=bottom;verticalAlign=top;shape=mxgraph.weblogos.whatsapp;fillColor=#00E676;strokeColor=#dddddd" parent="529" vertex="1">
                    <mxGeometry x="107.28" y="181.25" width="17.41" height="17.5" as="geometry"/>
                </mxCell>
                <mxCell id="654" value="" style="html=1;verticalLabelPosition=bottom;align=center;labelBackgroundColor=#ffffff;verticalAlign=top;strokeWidth=2;strokeColor=#0080F0;shadow=0;dashed=0;shape=mxgraph.ios7.icons.mail;fillColor=#999999;" parent="529" vertex="1">
                    <mxGeometry x="135.77" y="186.13" width="17.48" height="7.75" as="geometry"/>
                </mxCell>
                <mxCell id="655" value="" style="pointerEvents=1;shadow=0;dashed=0;html=1;strokeColor=none;fillColor=#505050;labelPosition=center;verticalLabelPosition=bottom;verticalAlign=top;outlineConnect=0;align=center;shape=mxgraph.office.devices.cell_phone_android_proportional;" parent="529" vertex="1">
                    <mxGeometry x="167.09" y="180.63" width="16.95" height="18.75" as="geometry"/>
                </mxCell>
                <mxCell id="680" value="" style="dashed=0;aspect=fixed;verticalLabelPosition=bottom;verticalAlign=top;align=center;shape=mxgraph.gmdl.share2;strokeColor=none;fillColor=#737373;shadow=0;" parent="529" vertex="1">
                    <mxGeometry x="229.99999999999997" y="61.25" width="30" height="30" as="geometry"/>
                </mxCell>
                <mxCell id="576" value="" style="html=1;verticalLabelPosition=bottom;labelBackgroundColor=#ffffff;verticalAlign=top;shadow=0;dashed=0;strokeWidth=1;shape=mxgraph.ios7.misc.iphone;strokeColor=#c0c0c0;" parent="1" vertex="1">
                    <mxGeometry x="620" y="63.75" width="320" height="640" as="geometry"/>
                </mxCell>
                <mxCell id="577" value="" style="shape=rect;strokeColor=none;fillColor=#ffffff;gradientColor=none;shadow=0;" parent="1" vertex="1">
                    <mxGeometry x="634" y="153.75" width="290" height="467.5" as="geometry"/>
                </mxCell>
                <mxCell id="578" value="" style="rounded=0;whiteSpace=wrap;html=1;fillColor=#DEDEDE;" parent="577" vertex="1">
                    <mxGeometry y="430" width="290" height="35" as="geometry"/>
                </mxCell>
                <mxCell id="579" value="" style="html=1;verticalLabelPosition=bottom;align=center;labelBackgroundColor=#ffffff;verticalAlign=top;strokeWidth=2;strokeColor=#0080F0;shadow=0;dashed=0;shape=mxgraph.ios7.icons.user;fillColor=#DEDEDE;" parent="577" vertex="1">
                    <mxGeometry x="249.1035483870968" y="434.42" width="27.935741935483875" height="25.84" as="geometry"/>
                </mxCell>
                <mxCell id="580" value="" style="html=1;verticalLabelPosition=bottom;align=center;labelBackgroundColor=#ffffff;verticalAlign=top;strokeWidth=2;strokeColor=#0080F0;shadow=0;dashed=0;shape=mxgraph.ios7.icons.chat;fillColor=#DEDEDE;" parent="577" vertex="1">
                    <mxGeometry x="73.46064516129032" y="437.5" width="26.542645161290327" height="20" as="geometry"/>
                </mxCell>
                <mxCell id="581" value="&lt;font style=&quot;font-size: 12px&quot;&gt;Mis Contactos&lt;/font&gt;" style="text;strokeColor=none;fillColor=#808080;html=1;fontSize=24;fontStyle=1;verticalAlign=middle;align=left;" parent="577" vertex="1">
                    <mxGeometry x="18.45" y="140" width="251.55" height="30.56" as="geometry"/>
                </mxCell>
                <mxCell id="582" value="" style="rounded=0;whiteSpace=wrap;html=1;strokeColor=#808080;fillColor=#66B2FF;" parent="577" vertex="1">
                    <mxGeometry x="66" y="70" width="81.55000000000001" height="30" as="geometry"/>
                </mxCell>
                <mxCell id="583" value="&lt;span style=&quot;font-size: 14px&quot;&gt;PaÃ­s&lt;/span&gt;" style="text;strokeColor=none;fillColor=none;html=1;fontSize=24;fontStyle=1;verticalAlign=middle;align=center;" parent="577" vertex="1">
                    <mxGeometry x="79.09903225806453" y="60" width="55.35483870967743" height="40" as="geometry"/>
                </mxCell>
                <mxCell id="584" value="" style="rounded=0;whiteSpace=wrap;html=1;strokeColor=#808080;fillColor=#66B2FF;" parent="577" vertex="1">
                    <mxGeometry x="156.88000000000002" y="70" width="90.67000000000002" height="30" as="geometry"/>
                </mxCell>
                <mxCell id="585" value="&lt;span style=&quot;font-size: 14px&quot;&gt;Ciudad&lt;/span&gt;" style="text;strokeColor=none;fillColor=none;html=1;fontSize=24;fontStyle=1;verticalAlign=middle;align=center;" parent="577" vertex="1">
                    <mxGeometry x="176.87322580645164" y="60" width="55.35483870967743" height="40" as="geometry"/>
                </mxCell>
                <mxCell id="586" value="" style="rounded=0;whiteSpace=wrap;html=1;strokeColor=#808080;fillColor=#808080;" parent="577" vertex="1">
                    <mxGeometry x="250.5177419354839" y="70" width="83.03225806451614" height="30" as="geometry"/>
                </mxCell>
                <mxCell id="587" value="&lt;span style=&quot;font-size: 14px&quot;&gt;Emp&lt;/span&gt;" style="text;strokeColor=none;fillColor=none;html=1;fontSize=24;fontStyle=1;verticalAlign=middle;align=center;" parent="577" vertex="1">
                    <mxGeometry x="277.55000000000007" y="60" width="51.35000000000001" height="40" as="geometry"/>
                </mxCell>
                <mxCell id="588" value="" style="html=1;verticalLabelPosition=bottom;align=center;labelBackgroundColor=#ffffff;verticalAlign=top;strokeWidth=2;strokeColor=#0080F0;shadow=0;dashed=0;shape=mxgraph.ios7.icons.location;fillColor=#66B2FF;" parent="577" vertex="1">
                    <mxGeometry x="160.46" y="73.75" width="16.41" height="21.25" as="geometry"/>
                </mxCell>
                <mxCell id="589" value="" style="html=1;verticalLabelPosition=bottom;align=center;labelBackgroundColor=#ffffff;verticalAlign=top;strokeWidth=2;strokeColor=#0080F0;shadow=0;dashed=0;shape=mxgraph.ios7.icons.location_2;fillColor=#66B2FF;" parent="577" vertex="1">
                    <mxGeometry x="71.1" y="77.5" width="15.000000000000002" height="15" as="geometry"/>
                </mxCell>
                <mxCell id="590" value="" style="html=1;verticalLabelPosition=bottom;align=center;labelBackgroundColor=#ffffff;verticalAlign=top;strokeWidth=2;strokeColor=#0080F0;shadow=0;dashed=0;shape=mxgraph.ios7.icons.shopping_cart;fillColor=#66B2FF;" parent="577" vertex="1">
                    <mxGeometry x="259.74" y="73.75" width="20.000000000000004" height="20" as="geometry"/>
                </mxCell>
                <mxCell id="591" value="Peru" style="rounded=1;whiteSpace=wrap;html=1;arcSize=50;strokeColor=none;strokeWidth=1;fillColor=#0085FC;fontColor=#FFFFFF;whiteSpace=wrap;align=left;verticalAlign=middle;spacingLeft=0;fontStyle=1;fontSize=14;spacing=10;" parent="577" vertex="1">
                    <mxGeometry x="18.44999999999999" y="110" width="70" height="20" as="geometry"/>
                </mxCell>
                <mxCell id="592" value="" style="html=1;verticalLabelPosition=bottom;labelBackgroundColor=#ffffff;verticalAlign=top;shadow=0;dashed=0;strokeWidth=2;shape=mxgraph.ios7.misc.delete;fillColor=#ff0000;strokeColor=#ffffff;" parent="577" vertex="1">
                    <mxGeometry x="73.45999999999998" y="114" width="12" height="12" as="geometry"/>
                </mxCell>
                <mxCell id="593" value="AQP" style="rounded=1;whiteSpace=wrap;html=1;arcSize=50;strokeColor=none;strokeWidth=1;fillColor=#0085FC;fontColor=#FFFFFF;whiteSpace=wrap;align=left;verticalAlign=middle;spacingLeft=0;fontStyle=1;fontSize=14;spacing=10;" parent="577" vertex="1">
                    <mxGeometry x="91.02999999999997" y="110" width="70" height="20" as="geometry"/>
                </mxCell>
                <mxCell id="594" value="" style="html=1;verticalLabelPosition=bottom;labelBackgroundColor=#ffffff;verticalAlign=top;shadow=0;dashed=0;strokeWidth=2;shape=mxgraph.ios7.misc.delete;fillColor=#ff0000;strokeColor=#ffffff;" parent="577" vertex="1">
                    <mxGeometry x="146.03999999999996" y="114" width="12" height="12" as="geometry"/>
                </mxCell>
                <mxCell id="595" value="Tecsup" style="rounded=1;whiteSpace=wrap;html=1;arcSize=50;strokeColor=none;strokeWidth=1;fillColor=#0085FC;fontColor=#FFFFFF;whiteSpace=wrap;align=left;verticalAlign=middle;spacingLeft=0;fontStyle=1;fontSize=14;spacing=10;" parent="577" vertex="1">
                    <mxGeometry x="164.04" y="110" width="85.96" height="20" as="geometry"/>
                </mxCell>
                <mxCell id="596" value="" style="html=1;verticalLabelPosition=bottom;labelBackgroundColor=#ffffff;verticalAlign=top;shadow=0;dashed=0;strokeWidth=2;shape=mxgraph.ios7.misc.delete;fillColor=#ff0000;strokeColor=#ffffff;" parent="577" vertex="1">
                    <mxGeometry x="232.18999999999994" y="114" width="12" height="12" as="geometry"/>
                </mxCell>
                <mxCell id="597" value="" style="triangle;whiteSpace=wrap;html=1;strokeColor=#808080;fillColor=#FF6666;rotation=90;" parent="577" vertex="1">
                    <mxGeometry x="134.45" y="80.62" width="4.77" height="8.75" as="geometry"/>
                </mxCell>
                <mxCell id="598" value="" style="triangle;whiteSpace=wrap;html=1;strokeColor=#808080;fillColor=#FF6666;rotation=90;" parent="577" vertex="1">
                    <mxGeometry x="233.44" y="80.63" width="4.77" height="8.75" as="geometry"/>
                </mxCell>
                <mxCell id="599" value="" style="triangle;whiteSpace=wrap;html=1;strokeColor=#808080;fillColor=#FF6666;rotation=90;" parent="577" vertex="1">
                    <mxGeometry x="324.13" y="80.63" width="4.77" height="8.75" as="geometry"/>
                </mxCell>
                <mxCell id="600" value="Nombre&#10;Empresa - Cargo" style="dashed=0;shape=rect;fillColor=#ffffff;strokeColor=none;verticalLabelPosition=middle;align=left;verticalAlign=middle;fontSize=15;spacingLeft=72;" parent="577" vertex="1">
                    <mxGeometry x="17.140000000000057" y="390" width="255.71" height="40" as="geometry"/>
                </mxCell>
                <mxCell id="601" value="" style="dashed=0;shape=mxgraph.gmdl.user;strokeColor=none;fillColor=#808080;" parent="600" vertex="1">
                    <mxGeometry y="0.5" width="40" height="40" relative="1" as="geometry">
                        <mxPoint x="16" y="-20" as="offset"/>
                    </mxGeometry>
                </mxCell>
                <mxCell id="602" value="" style="dashed=0;shape=mxgraph.gmdl.preferences;strokeColor=none;fillColor=#666666;" parent="600" vertex="1">
                    <mxGeometry x="1" y="0.5" width="18" height="18" relative="1" as="geometry">
                        <mxPoint x="-36" y="-9" as="offset"/>
                    </mxGeometry>
                </mxCell>
                <mxCell id="603" value="" style="html=1;verticalLabelPosition=bottom;align=center;labelBackgroundColor=#ffffff;verticalAlign=top;strokeWidth=2;strokeColor=#007FFF;shadow=0;dashed=0;shape=mxgraph.ios7.icons.calculator;fillColor=#B3B3B3;" parent="577" vertex="1">
                    <mxGeometry x="193.24" y="437.76" width="17.95" height="22.5" as="geometry"/>
                </mxCell>
                <mxCell id="604" value="" style="aspect=fixed;pointerEvents=1;shadow=0;dashed=0;html=1;strokeColor=none;labelPosition=center;verticalLabelPosition=bottom;verticalAlign=top;align=center;fillColor=#B3B3B3;shape=mxgraph.mscae.enterprise.filter" parent="577" vertex="1">
                    <mxGeometry x="26" y="75" width="22.22" height="20" as="geometry"/>
                </mxCell>
                <mxCell id="605" value="" style="html=1;verticalLabelPosition=bottom;align=center;labelBackgroundColor=#ffffff;verticalAlign=top;strokeWidth=2;strokeColor=#FF6666;shadow=0;dashed=0;shape=mxgraph.ios7.icons.home;fillColor=#E6E6E6;" parent="577" vertex="1">
                    <mxGeometry x="18.45" y="436.09" width="24" height="22.5" as="geometry"/>
                </mxCell>
                <mxCell id="606" value="" style="shape=rect;fillColor=#DEDEDE;strokeColor=none;" parent="1" vertex="1">
                    <mxGeometry x="700" y="173.75" width="160" height="30" as="geometry"/>
                </mxCell>
                <mxCell id="607" value="" style="html=1;strokeWidth=1;shadow=0;dashed=0;shape=mxgraph.ios7ui.marginRect;rx=3;ry=3;rectMargin=5;strokeColor=none;" parent="606" vertex="1">
                    <mxGeometry width="160" height="30" as="geometry"/>
                </mxCell>
                <mxCell id="608" value="Search" style="shape=mxgraph.ios7.icons.looking_glass;strokeColor=#e0e0e0;fillColor=none;fontColor=#e0e0e0;labelPosition=right;verticalLabelPosition=middle;align=left;verticalAlign=middle;fontSize=6;fontStyle=0;spacingTop=2;" parent="606" vertex="1">
                    <mxGeometry x="0.5" y="0.5" width="6" height="6" relative="1" as="geometry">
                        <mxPoint x="-17" y="-3" as="offset"/>
                    </mxGeometry>
                </mxCell>
                <mxCell id="609" value="" style="html=1;verticalLabelPosition=bottom;align=center;labelBackgroundColor=#ffffff;verticalAlign=top;strokeWidth=2;strokeColor=#0080F0;shadow=0;dashed=0;shape=mxgraph.ios7.icons.user;fillColor=#DEDEDE;" parent="1" vertex="1">
                    <mxGeometry x="870" y="173.75" width="30" height="30" as="geometry"/>
                </mxCell>
                <mxCell id="610" value="" style="html=1;verticalLabelPosition=bottom;align=center;labelBackgroundColor=#ffffff;verticalAlign=top;strokeWidth=2;strokeColor=#0080F0;shadow=0;dashed=0;shape=mxgraph.ios7.icons.options;pointerEvents=1;fillColor=#DEDEDE;" parent="1" vertex="1">
                    <mxGeometry x="660" y="177.5" width="30" height="22.5" as="geometry"/>
                </mxCell>
                <mxCell id="611" value="" style="rounded=0;whiteSpace=wrap;html=1;strokeColor=#808080;fillColor=#808080;" parent="1" vertex="1">
                    <mxGeometry x="987.55" y="223.75" width="100" height="30" as="geometry"/>
                </mxCell>
                <mxCell id="612" value="&lt;span style=&quot;font-size: 14px&quot;&gt;Estudios&lt;/span&gt;" style="text;strokeColor=none;fillColor=none;html=1;fontSize=24;fontStyle=1;verticalAlign=middle;align=center;" parent="1" vertex="1">
                    <mxGeometry x="1010.5764516129032" y="213.75" width="55.35483870967742" height="40" as="geometry"/>
                </mxCell>
                <mxCell id="613" value="" style="html=1;verticalLabelPosition=bottom;align=center;labelBackgroundColor=#ffffff;verticalAlign=top;strokeWidth=2;strokeColor=#0080F0;shadow=0;dashed=0;shape=mxgraph.ios7.icons.pen;fillColor=#66B2FF;" parent="1" vertex="1">
                    <mxGeometry x="991.55" y="233.75" width="9.9" height="10" as="geometry"/>
                </mxCell>
                <mxCell id="614" value="" style="ellipse;whiteSpace=wrap;html=1;strokeColor=#808080;fillColor=#E6E6E6;" parent="1" vertex="1">
                    <mxGeometry x="1097.55" y="248.75" width="5" height="5" as="geometry"/>
                </mxCell>
                <mxCell id="615" value="" style="ellipse;whiteSpace=wrap;html=1;strokeColor=#808080;fillColor=#E6E6E6;" parent="1" vertex="1">
                    <mxGeometry x="1107.55" y="248.75" width="5" height="5" as="geometry"/>
                </mxCell>
                <mxCell id="616" value="DiseÃ±o" style="rounded=1;whiteSpace=wrap;html=1;arcSize=50;strokeColor=none;strokeWidth=1;fillColor=#0085FC;fontColor=#FFFFFF;whiteSpace=wrap;align=left;verticalAlign=middle;spacingLeft=0;fontStyle=1;fontSize=14;spacing=10;" parent="1" vertex="1">
                    <mxGeometry x="890" y="263.75" width="85.96" height="20" as="geometry"/>
                </mxCell>
                <mxCell id="617" value="" style="html=1;verticalLabelPosition=bottom;labelBackgroundColor=#ffffff;verticalAlign=top;shadow=0;dashed=0;strokeWidth=2;shape=mxgraph.ios7.misc.delete;fillColor=#ff0000;strokeColor=#ffffff;" parent="1" vertex="1">
                    <mxGeometry x="958.1499999999999" y="267.75" width="12" height="12" as="geometry"/>
                </mxCell>
                <mxCell id="618" value="" style="triangle;whiteSpace=wrap;html=1;strokeColor=#808080;fillColor=#FF6666;rotation=90;" parent="1" vertex="1">
                    <mxGeometry x="1077.55" y="235" width="4.77" height="8.75" as="geometry"/>
                </mxCell>
                <mxCell id="619" value="Nombre&#10;Empresa - Cargo" style="dashed=0;shape=rect;fillColor=#ffffff;strokeColor=none;verticalLabelPosition=middle;align=left;verticalAlign=middle;fontSize=15;spacingLeft=72;" parent="1" vertex="1">
                    <mxGeometry x="648.29" y="333.75" width="260" height="120" as="geometry"/>
                </mxCell>
                <mxCell id="620" value="" style="dashed=0;shape=mxgraph.gmdl.user;strokeColor=none;fillColor=#808080;" parent="619" vertex="1">
                    <mxGeometry y="0.5" width="40" height="40" relative="1" as="geometry">
                        <mxPoint x="16" y="-20" as="offset"/>
                    </mxGeometry>
                </mxCell>
                <mxCell id="621" value="" style="dashed=0;shape=mxgraph.gmdl.preferences;strokeColor=none;fillColor=#666666;" parent="619" vertex="1">
                    <mxGeometry x="1" y="0.5" width="18" height="18" relative="1" as="geometry">
                        <mxPoint x="-36" y="-9" as="offset"/>
                    </mxGeometry>
                </mxCell>
                <mxCell id="622" value="Nombre&#10;Empresa - Cargo" style="dashed=0;shape=rect;fillColor=#ffffff;strokeColor=none;verticalLabelPosition=middle;align=left;verticalAlign=middle;fontSize=15;spacingLeft=72;" parent="1" vertex="1">
                    <mxGeometry x="651.1400000000001" y="383.75" width="255.71" height="40" as="geometry"/>
                </mxCell>
                <mxCell id="623" value="" style="dashed=0;shape=mxgraph.gmdl.user;strokeColor=none;fillColor=#808080;" parent="622" vertex="1">
                    <mxGeometry y="0.5" width="40" height="40" relative="1" as="geometry">
                        <mxPoint x="16" y="-20" as="offset"/>
                    </mxGeometry>
                </mxCell>
                <mxCell id="624" value="" style="dashed=0;shape=mxgraph.gmdl.preferences;strokeColor=none;fillColor=#666666;" parent="622" vertex="1">
                    <mxGeometry x="1" y="0.5" width="18" height="18" relative="1" as="geometry">
                        <mxPoint x="-36" y="-9" as="offset"/>
                    </mxGeometry>
                </mxCell>
                <mxCell id="625" value="Nombre&#10;Empresa - Cargo" style="dashed=0;shape=rect;fillColor=#ffffff;strokeColor=none;verticalLabelPosition=middle;align=left;verticalAlign=middle;fontSize=15;spacingLeft=72;" parent="1" vertex="1">
                    <mxGeometry x="652.1400000000001" y="443.75" width="255.71" height="40" as="geometry"/>
                </mxCell>
                <mxCell id="626" value="" style="dashed=0;shape=mxgraph.gmdl.user;strokeColor=none;fillColor=#808080;" parent="625" vertex="1">
                    <mxGeometry y="0.5" width="40" height="40" relative="1" as="geometry">
                        <mxPoint x="16" y="-20" as="offset"/>
                    </mxGeometry>
                </mxCell>
                <mxCell id="627" value="" style="dashed=0;shape=mxgraph.gmdl.preferences;strokeColor=none;fillColor=#666666;" parent="625" vertex="1">
                    <mxGeometry x="1" y="0.5" width="18" height="18" relative="1" as="geometry">
                        <mxPoint x="-36" y="-9" as="offset"/>
                    </mxGeometry>
                </mxCell>
                <mxCell id="628" value="Nombre&#10;Empresa - Cargo" style="dashed=0;shape=rect;fillColor=#ffffff;strokeColor=none;verticalLabelPosition=middle;align=left;verticalAlign=middle;fontSize=15;spacingLeft=72;" parent="1" vertex="1">
                    <mxGeometry x="652.1400000000001" y="493.75" width="255.71" height="40" as="geometry"/>
                </mxCell>
                <mxCell id="629" value="" style="dashed=0;shape=mxgraph.gmdl.user;strokeColor=none;fillColor=#808080;" parent="628" vertex="1">
                    <mxGeometry y="0.5" width="40" height="40" relative="1" as="geometry">
                        <mxPoint x="16" y="-20" as="offset"/>
                    </mxGeometry>
                </mxCell>
                <mxCell id="630" value="" style="dashed=0;shape=mxgraph.gmdl.preferences;strokeColor=none;fillColor=#666666;" parent="628" vertex="1">
                    <mxGeometry x="1" y="0.5" width="18" height="18" relative="1" as="geometry">
                        <mxPoint x="-36" y="-9" as="offset"/>
                    </mxGeometry>
                </mxCell>
                <mxCell id="631" value="" style="html=1;verticalLabelPosition=bottom;labelBackgroundColor=#ffffff;verticalAlign=top;shadow=0;dashed=0;strokeWidth=2;shape=mxgraph.ios7.misc.add;fillColor=#6666FF;strokeColor=#ffffff;" parent="1" vertex="1">
                    <mxGeometry x="762.9654193548388" y="571.75" width="32.06890322580646" height="32.08" as="geometry"/>
                </mxCell>
                <mxCell id="633" value="P" style="html=1;shadow=0;dashed=0;shape=mxgraph.bootstrap.rrect;rSize=5;strokeColor=#CED4DA;strokeWidth=1;fillColor=#E9ECEF;fontColor=#505050;whiteSpace=wrap;align=left;verticalAlign=middle;spacingLeft=10;fontSize=14;" parent="1" vertex="1">
                    <mxGeometry x="652.45" y="263.75" width="257.55" height="40" as="geometry"/>
                </mxCell>
                <mxCell id="642" value="" style="html=1;shadow=0;dashed=0;shape=mxgraph.bootstrap.rrect;rSize=5;strokeColor=#DFDFDF;html=1;whiteSpace=wrap;fillColor=#FFFFFF;fontColor=#000000;" parent="1" vertex="1">
                    <mxGeometry x="651.55" y="303.75" width="260" height="150" as="geometry"/>
                </mxCell>
                <mxCell id="643" value="&lt;b&gt;P&lt;/b&gt;hotoshop" style="strokeColor=inherit;fillColor=inherit;gradientColor=inherit;fontColor=inherit;html=1;shadow=0;dashed=0;shape=mxgraph.bootstrap.topButton;rSize=5;perimeter=none;whiteSpace=wrap;resizeWidth=1;align=left;spacing=10;" parent="642" vertex="1">
                    <mxGeometry width="260" height="30" relative="1" as="geometry"/>
                </mxCell>
                <mxCell id="644" value="&lt;b&gt;P&lt;/b&gt;rogramaciÃ³n" style="strokeColor=inherit;fillColor=inherit;gradientColor=inherit;fontColor=inherit;html=1;shadow=0;dashed=0;perimeter=none;whiteSpace=wrap;resizeWidth=1;align=left;spacing=10;" parent="642" vertex="1">
                    <mxGeometry width="260" height="30" relative="1" as="geometry">
                        <mxPoint y="30" as="offset"/>
                    </mxGeometry>
                </mxCell>
                <mxCell id="645" value="&lt;b&gt;P&lt;/b&gt;ublicidad" style="strokeColor=inherit;fillColor=inherit;gradientColor=inherit;fontColor=inherit;html=1;shadow=0;dashed=0;perimeter=none;whiteSpace=wrap;resizeWidth=1;align=left;spacing=10;" parent="642" vertex="1">
                    <mxGeometry width="260" height="30" relative="1" as="geometry">
                        <mxPoint y="60" as="offset"/>
                    </mxGeometry>
                </mxCell>
                <mxCell id="646" value="&lt;b&gt;P&lt;/b&gt;interest Ads" style="strokeColor=inherit;fillColor=inherit;gradientColor=inherit;fontColor=inherit;html=1;shadow=0;dashed=0;perimeter=none;whiteSpace=wrap;resizeWidth=1;align=left;spacing=10;" parent="642" vertex="1">
                    <mxGeometry width="260" height="30" relative="1" as="geometry">
                        <mxPoint y="90" as="offset"/>
                    </mxGeometry>
                </mxCell>
                <mxCell id="647" value="Adobe &lt;b&gt;P&lt;/b&gt;remier" style="strokeColor=inherit;fillColor=inherit;gradientColor=inherit;fontColor=inherit;html=1;shadow=0;dashed=0;shape=mxgraph.bootstrap.bottomButton;rSize=5;perimeter=none;whiteSpace=wrap;resizeWidth=1;resizeHeight=0;align=left;spacing=10;" parent="642" vertex="1">
                    <mxGeometry y="1" width="260" height="30" relative="1" as="geometry">
                        <mxPoint y="-30" as="offset"/>
                    </mxGeometry>
                </mxCell>
                <mxCell id="648" value="" style="html=1;verticalLabelPosition=bottom;labelBackgroundColor=#ffffff;verticalAlign=top;shadow=0;dashed=0;strokeWidth=2;shape=mxgraph.ios7.misc.add;fillColor=#00dd00;strokeColor=#ffffff;" parent="642" vertex="1">
                    <mxGeometry x="238.45" y="10" width="12" height="12" as="geometry"/>
                </mxCell>
                <mxCell id="649" value="" style="html=1;verticalLabelPosition=bottom;labelBackgroundColor=#ffffff;verticalAlign=top;shadow=0;dashed=0;strokeWidth=2;shape=mxgraph.ios7.misc.add;fillColor=#00dd00;strokeColor=#ffffff;" parent="642" vertex="1">
                    <mxGeometry x="238.45" y="40" width="12" height="12" as="geometry"/>
                </mxCell>
                <mxCell id="650" value="" style="html=1;verticalLabelPosition=bottom;labelBackgroundColor=#ffffff;verticalAlign=top;shadow=0;dashed=0;strokeWidth=2;shape=mxgraph.ios7.misc.add;fillColor=#00dd00;strokeColor=#ffffff;" parent="642" vertex="1">
                    <mxGeometry x="238.45" y="69" width="12" height="12" as="geometry"/>
                </mxCell>
                <mxCell id="651" value="" style="html=1;verticalLabelPosition=bottom;labelBackgroundColor=#ffffff;verticalAlign=top;shadow=0;dashed=0;strokeWidth=2;shape=mxgraph.ios7.misc.add;fillColor=#00dd00;strokeColor=#ffffff;" parent="642" vertex="1">
                    <mxGeometry x="238.45" y="100" width="12" height="12" as="geometry"/>
                </mxCell>
                <mxCell id="652" value="" style="html=1;verticalLabelPosition=bottom;labelBackgroundColor=#ffffff;verticalAlign=top;shadow=0;dashed=0;strokeWidth=2;shape=mxgraph.ios7.misc.add;fillColor=#00dd00;strokeColor=#ffffff;" parent="642" vertex="1">
                    <mxGeometry x="238.45" y="130" width="12" height="12" as="geometry"/>
                </mxCell>
            </root>
        </mxGraphModel>
    </diagram>
</mxfile>